<svg xmlns="http://www.w3.org/2000/svg" xmlns:xlink="http://www.w3.org/1999/xlink" width="5000" zoomAndPan="magnify" viewBox="0 0 3750 743.999995" height="992" preserveAspectRatio="xMidYMid meet" version="1.0"><defs><g/></defs><g fill="#ffaa04" fill-opacity="0.302"><g transform="translate(76.557753, 514.340328)"><g><path d="M 325.671875 -278.421875 C 337.097656 -278.421875 342.8125 -274.800781 342.8125 -267.5625 C 342.8125 -265.613281 342.671875 -264.21875 342.390625 -263.375 C 341.554688 -260.59375 340.300781 -258.429688 338.625 -256.890625 C 336.957031 -255.359375 334.59375 -253.617188 331.53125 -251.671875 C 327.34375 -249.160156 323.851562 -246.375 321.0625 -243.3125 C 318.28125 -240.25 315.914062 -235.507812 313.96875 -229.09375 L 262.125 -43.484375 C 257.382812 -26.753906 251.460938 -15.046875 244.359375 -8.359375 C 237.253906 -1.671875 227.429688 1.671875 214.890625 1.671875 C 203.734375 1.671875 194.460938 -1.601562 187.078125 -8.15625 C 179.691406 -14.707031 172.796875 -24.8125 166.390625 -38.46875 L 103.265625 -171.40625 L 68.140625 -49.328125 C 67.304688 -45.703125 66.890625 -42.5 66.890625 -39.71875 C 66.890625 -36.09375 67.515625 -33.09375 68.765625 -30.71875 C 70.023438 -28.351562 71.769531 -25.914062 74 -23.40625 C 77.0625 -19.789062 78.59375 -16.726562 78.59375 -14.21875 C 78.59375 -12.539062 78.453125 -11.285156 78.171875 -10.453125 C 77.054688 -6.546875 74.546875 -3.828125 70.640625 -2.296875 C 66.742188 -0.765625 60.894531 0 53.09375 0 L 7.53125 0 C -3.894531 0 -9.609375 -3.625 -9.609375 -10.875 C -9.609375 -12.820312 -9.472656 -14.210938 -9.203125 -15.046875 C -8.359375 -17.835938 -7.097656 -20 -5.421875 -21.53125 C -3.753906 -23.0625 -1.390625 -24.800781 1.671875 -26.75 C 5.847656 -29.257812 9.328125 -32.046875 12.109375 -35.109375 C 14.898438 -38.179688 17.273438 -42.921875 19.234375 -49.328125 L 72.328125 -237.046875 L 65.640625 -250.84375 C 62.847656 -256.414062 61.453125 -261.289062 61.453125 -265.46875 C 61.453125 -274.101562 67.023438 -278.421875 78.171875 -278.421875 L 140.046875 -278.421875 C 148.960938 -278.421875 155.71875 -276.398438 160.3125 -272.359375 C 164.914062 -268.328125 169.867188 -261.15625 175.171875 -250.84375 L 236.203125 -128.34375 L 265.046875 -229.09375 C 265.890625 -233 266.3125 -236.207031 266.3125 -238.71875 C 266.3125 -242.34375 265.679688 -245.335938 264.421875 -247.703125 C 263.171875 -250.066406 261.429688 -252.503906 259.203125 -255.015625 C 256.128906 -258.640625 254.59375 -261.707031 254.59375 -264.21875 C 254.59375 -265.882812 254.734375 -267.140625 255.015625 -267.984375 C 256.128906 -271.878906 258.632812 -274.59375 262.53125 -276.125 C 266.4375 -277.65625 272.296875 -278.421875 280.109375 -278.421875 Z M 325.671875 -278.421875 "/></g></g></g><g fill="#ffaa04" fill-opacity="0.302"><g transform="translate(380.485031, 514.340328)"><g><path d="M 141.71875 -223.25 C 177.113281 -223.25 202.753906 -217.601562 218.640625 -206.3125 C 234.523438 -195.019531 242.46875 -180.597656 242.46875 -163.046875 C 242.46875 -157.742188 241.910156 -152.863281 240.796875 -148.40625 C 236.617188 -130.007812 224.984375 -116.835938 205.890625 -108.890625 C 186.804688 -100.953125 164.300781 -96.984375 138.375 -96.984375 C 125.28125 -96.984375 113.019531 -97.820312 101.59375 -99.5 C 101.3125 -85.007812 105.210938 -74.835938 113.296875 -68.984375 C 121.378906 -63.128906 132.664062 -60.203125 147.15625 -60.203125 C 153.84375 -60.203125 160.253906 -60.96875 166.390625 -62.5 C 172.523438 -64.03125 180.328125 -66.328125 189.796875 -69.390625 C 197.597656 -72.179688 202.894531 -73.578125 205.6875 -73.578125 C 208.75 -73.578125 210.28125 -71.765625 210.28125 -68.140625 C 210.5625 -58.390625 206.9375 -48.148438 199.40625 -37.421875 C 191.882812 -26.691406 180.738281 -17.5625 165.96875 -10.03125 C 151.195312 -2.507812 133.359375 1.25 112.453125 1.25 C 81.515625 1.25 56.148438 -6.550781 36.359375 -22.15625 C 16.578125 -37.757812 6.6875 -60.472656 6.6875 -90.296875 C 6.6875 -98.660156 7.800781 -108.414062 10.03125 -119.5625 C 17 -153.84375 32.257812 -179.691406 55.8125 -197.109375 C 79.363281 -214.535156 108 -223.25 141.71875 -223.25 Z M 104.515625 -124.578125 C 105.628906 -124.304688 107.160156 -124.171875 109.109375 -124.171875 C 120.816406 -124.171875 129.734375 -129.601562 135.859375 -140.46875 C 141.992188 -151.332031 144.925781 -163.457031 144.65625 -176.84375 C 144.375 -184.644531 142.140625 -188.546875 137.953125 -188.546875 C 134.890625 -188.546875 131.265625 -186.101562 127.078125 -181.21875 C 122.898438 -176.34375 118.789062 -169.03125 114.75 -159.28125 C 110.71875 -149.53125 107.304688 -137.960938 104.515625 -124.578125 Z M 104.515625 -124.578125 "/></g></g></g><g fill="#ffaa04" fill-opacity="0.302"><g transform="translate(614.596762, 514.340328)"><g><path d="M 392.5625 -161.796875 C 392.5625 -136.984375 383.921875 -111.617188 366.640625 -85.703125 C 349.359375 -59.785156 327.546875 -38.394531 301.203125 -21.53125 C 274.867188 -4.664062 249.019531 3.765625 223.65625 3.765625 C 203.59375 3.765625 186.59375 0.28125 172.65625 -6.6875 C 158.71875 -13.65625 149.660156 -23.691406 145.484375 -36.796875 C 135.171875 -24.253906 123.742188 -14.773438 111.203125 -8.359375 C 98.660156 -1.953125 85.5625 1.25 71.90625 1.25 C 52.957031 1.25 37.554688 -3.414062 25.703125 -12.75 C 13.859375 -22.082031 7.9375 -35.8125 7.9375 -53.9375 C 7.9375 -63.40625 9.472656 -73.15625 12.546875 -83.1875 L 35.953125 -165.140625 C 36.515625 -167.367188 36.796875 -169.039062 36.796875 -170.15625 C 36.796875 -172.9375 36.097656 -175.300781 34.703125 -177.25 C 33.304688 -179.207031 31.351562 -181.300781 28.84375 -183.53125 C 24.664062 -187.15625 22.578125 -190.359375 22.578125 -193.140625 C 22.296875 -197.046875 24.660156 -201.226562 29.671875 -205.6875 C 34.691406 -210.144531 41.726562 -213.835938 50.78125 -216.765625 C 59.84375 -219.691406 70.085938 -221.15625 81.515625 -221.15625 C 100.191406 -221.15625 114.753906 -216.625 125.203125 -207.5625 C 135.660156 -198.507812 140.890625 -186.734375 140.890625 -172.234375 C 140.890625 -165.828125 139.773438 -158.863281 137.546875 -151.34375 L 116.21875 -80.265625 C 115.101562 -76.367188 114.546875 -73.722656 114.546875 -72.328125 C 114.546875 -68.703125 115.585938 -65.910156 117.671875 -63.953125 C 119.765625 -62.003906 122.625 -61.03125 126.25 -61.03125 C 131.269531 -61.03125 135.519531 -62.769531 139 -66.25 C 142.488281 -69.738281 145.90625 -75.382812 149.25 -83.1875 L 173.078125 -165.140625 C 173.628906 -167.367188 173.90625 -169.039062 173.90625 -170.15625 C 173.90625 -172.9375 173.207031 -175.300781 171.8125 -177.25 C 170.425781 -179.207031 168.476562 -181.300781 165.96875 -183.53125 C 161.789062 -187.15625 159.703125 -190.359375 159.703125 -193.140625 C 159.421875 -197.046875 161.785156 -201.226562 166.796875 -205.6875 C 171.816406 -210.144531 178.851562 -213.835938 187.90625 -216.765625 C 196.96875 -219.691406 207.210938 -221.15625 218.640625 -221.15625 C 237.597656 -221.15625 252.234375 -216.695312 262.546875 -207.78125 C 272.859375 -198.863281 278.015625 -187.015625 278.015625 -172.234375 C 278.015625 -166.390625 276.898438 -159.425781 274.671875 -151.34375 L 247.5 -61.875 C 246.9375 -60.476562 246.65625 -58.390625 246.65625 -55.609375 C 246.65625 -51.984375 247.910156 -49.191406 250.421875 -47.234375 C 252.929688 -45.285156 256.414062 -44.3125 260.875 -44.3125 C 267 -44.3125 274.171875 -47.03125 282.390625 -52.46875 C 290.617188 -57.90625 298.703125 -65.707031 306.640625 -75.875 C 314.585938 -86.050781 321.070312 -98.109375 326.09375 -112.046875 C 314.9375 -121.796875 307.054688 -131.40625 302.453125 -140.875 C 297.859375 -150.351562 295.5625 -160.113281 295.5625 -170.15625 C 295.5625 -184.363281 299.460938 -196.414062 307.265625 -206.3125 C 315.078125 -216.207031 326.367188 -221.15625 341.140625 -221.15625 C 355.910156 -221.15625 368.171875 -215.859375 377.921875 -205.265625 C 387.679688 -194.671875 392.5625 -180.179688 392.5625 -161.796875 Z M 392.5625 -161.796875 "/></g></g></g><g fill="#ffaa04" fill-opacity="0.302"><g transform="translate(1002.135348, 514.340328)"><g/></g></g><g fill="#ffaa04" fill-opacity="0.302"><g transform="translate(1085.746611, 514.340328)"><g><path d="M 145.484375 2.515625 C 122.078125 2.515625 101.035156 -1.800781 82.359375 -10.4375 C 63.679688 -19.082031 48.835938 -31.835938 37.828125 -48.703125 C 26.828125 -65.566406 21.328125 -85.984375 21.328125 -109.953125 C 21.328125 -126.671875 24.25 -144.785156 30.09375 -164.296875 C 42.914062 -206.109375 62.285156 -236.28125 88.203125 -254.8125 C 114.128906 -273.34375 141.863281 -282.609375 171.40625 -282.609375 C 187.289062 -282.609375 201.363281 -280.238281 213.625 -275.5 C 225.894531 -270.757812 237.1875 -263.929688 247.5 -255.015625 L 258.78125 -263.796875 C 266.300781 -269.648438 272.640625 -273.691406 277.796875 -275.921875 C 282.953125 -278.148438 288.738281 -279.265625 295.15625 -279.265625 C 302.125 -279.265625 307.695312 -277.726562 311.875 -274.65625 C 316.050781 -271.59375 318.140625 -267.132812 318.140625 -261.28125 C 318.140625 -258.21875 317.582031 -255.15625 316.46875 -252.09375 L 293.0625 -186.875 C 290.550781 -179.351562 287.550781 -174.054688 284.0625 -170.984375 C 280.582031 -167.921875 275.359375 -166.390625 268.390625 -166.390625 C 261.148438 -166.390625 255.226562 -168.96875 250.625 -174.125 C 246.03125 -179.28125 240.804688 -188.128906 234.953125 -200.671875 C 228.265625 -213.765625 222.828125 -222.398438 218.640625 -226.578125 C 214.460938 -230.765625 208.332031 -232.859375 200.25 -232.859375 C 188.820312 -232.859375 177.8125 -225.820312 167.21875 -211.75 C 156.632812 -197.675781 147.019531 -176.5625 138.375 -148.40625 C 131.132812 -124.71875 127.515625 -104.929688 127.515625 -89.046875 C 127.515625 -75.109375 130.160156 -64.722656 135.453125 -57.890625 C 140.742188 -51.066406 147.847656 -47.65625 156.765625 -47.65625 C 169.867188 -47.65625 180.671875 -50.582031 189.171875 -56.4375 C 197.671875 -62.289062 206.378906 -70.234375 215.296875 -80.265625 C 220.867188 -86.398438 225.394531 -90.929688 228.875 -93.859375 C 232.363281 -96.785156 236.0625 -98.25 239.96875 -98.25 C 244.988281 -98.25 250.285156 -95.738281 255.859375 -90.71875 C 261.429688 -85.695312 264.078125 -80.679688 263.796875 -75.671875 C 264.078125 -69.535156 259.128906 -60.054688 248.953125 -47.234375 C 238.785156 -34.421875 224.710938 -22.925781 206.734375 -12.75 C 188.753906 -2.570312 168.335938 2.515625 145.484375 2.515625 Z M 145.484375 2.515625 "/></g></g></g><g fill="#ffaa04" fill-opacity="0.302"><g transform="translate(1375.041884, 514.340328)"><g><path d="M 256.265625 -57.6875 C 255.710938 -56.570312 255.4375 -54.898438 255.4375 -52.671875 C 255.4375 -50.722656 255.921875 -49.191406 256.890625 -48.078125 C 257.867188 -46.960938 259.195312 -46.40625 260.875 -46.40625 C 264.21875 -46.40625 267.070312 -47.867188 269.4375 -50.796875 C 271.8125 -53.722656 273.414062 -55.1875 274.25 -55.1875 C 275.644531 -55.1875 276.757812 -54.28125 277.59375 -52.46875 C 278.425781 -50.65625 278.84375 -48.492188 278.84375 -45.984375 C 279.125 -37.898438 276.476562 -30.023438 270.90625 -22.359375 C 265.332031 -14.703125 257.179688 -8.429688 246.453125 -3.546875 C 235.722656 1.328125 222.832031 3.765625 207.78125 3.765625 C 189.382812 3.765625 174.75 -0.484375 163.875 -8.984375 C 153.007812 -17.484375 147.4375 -28.84375 147.15625 -43.0625 C 147.15625 -53.375 149.664062 -64.941406 154.6875 -77.765625 L 177.671875 -137.953125 C 179.066406 -141.578125 179.765625 -144.503906 179.765625 -146.734375 C 179.765625 -150.359375 178.578125 -153.21875 176.203125 -155.3125 C 173.835938 -157.40625 170.984375 -158.453125 167.640625 -158.453125 C 162.347656 -158.453125 156.984375 -156.007812 151.546875 -151.125 C 146.109375 -146.25 141.71875 -138.378906 138.375 -127.515625 L 138.375 -128.34375 L 112.046875 -43.484375 C 111.203125 -40.140625 110.78125 -37.210938 110.78125 -34.703125 C 110.78125 -31.078125 111.476562 -28.21875 112.875 -26.125 C 114.269531 -24.039062 116.222656 -22.019531 118.734375 -20.0625 C 120.679688 -18.113281 122.070312 -16.507812 122.90625 -15.25 C 123.75 -14 123.890625 -12.398438 123.328125 -10.453125 C 121.929688 -6.828125 119.144531 -4.175781 114.96875 -2.5 C 110.789062 -0.832031 104.378906 0 95.734375 0 L 0.421875 0 C -6.828125 0 -12.125 -1.179688 -15.46875 -3.546875 C -18.8125 -5.921875 -19.925781 -9.054688 -18.8125 -12.953125 C -17.695312 -16.304688 -14.769531 -19.234375 -10.03125 -21.734375 C -5.851562 -23.960938 -2.375 -26.609375 0.40625 -29.671875 C 3.195312 -32.742188 5.570312 -37.625 7.53125 -44.3125 L 71.078125 -252.921875 C 71.910156 -255.429688 72.328125 -257.523438 72.328125 -259.203125 C 72.328125 -262.265625 71.554688 -264.769531 70.015625 -266.71875 C 68.484375 -268.675781 66.46875 -270.628906 63.96875 -272.578125 C 61.175781 -274.804688 59.148438 -276.753906 57.890625 -278.421875 C 56.640625 -280.097656 56.4375 -282.332031 57.28125 -285.125 C 58.945312 -291.53125 67.722656 -297.101562 83.609375 -301.84375 C 99.492188 -306.582031 116.078125 -308.953125 133.359375 -308.953125 C 149.523438 -308.953125 161.441406 -305.882812 169.109375 -299.75 C 176.773438 -293.613281 180.609375 -285.253906 180.609375 -274.671875 C 180.609375 -268.535156 179.628906 -262.539062 177.671875 -256.6875 L 155.09375 -183.109375 C 165.96875 -197.328125 177.46875 -207.222656 189.59375 -212.796875 C 201.71875 -218.367188 214.882812 -221.15625 229.09375 -221.15625 C 246.09375 -221.15625 259.816406 -216 270.265625 -205.6875 C 280.722656 -195.375 285.953125 -181.992188 285.953125 -165.546875 C 285.953125 -156.910156 284.5625 -148.410156 281.78125 -140.046875 Z M 256.265625 -57.6875 "/></g></g></g><g fill="#ffaa04" fill-opacity="0.302"><g transform="translate(1671.862245, 514.340328)"><g><path d="M 161.796875 -221.15625 C 199.691406 -221.15625 227.628906 -213.488281 245.609375 -198.15625 C 263.585938 -182.832031 272.578125 -162.765625 272.578125 -137.953125 C 272.578125 -129.597656 271.460938 -120.265625 269.234375 -109.953125 C 263.929688 -87.097656 254.035156 -67.097656 239.546875 -49.953125 C 225.054688 -32.816406 207.289062 -19.578125 186.25 -10.234375 C 165.207031 -0.898438 142.421875 3.765625 117.890625 3.765625 C 79.148438 3.765625 50.515625 -3.96875 31.984375 -19.4375 C 13.453125 -34.90625 4.1875 -55.460938 4.1875 -81.109375 C 4.1875 -89.742188 5.300781 -99.359375 7.53125 -109.953125 C 12.820312 -131.691406 22.921875 -150.988281 37.828125 -167.84375 C 52.742188 -184.707031 71 -197.804688 92.59375 -207.140625 C 114.195312 -216.484375 137.265625 -221.15625 161.796875 -221.15625 Z M 160.53125 -183.953125 C 154.675781 -183.953125 148.472656 -178.722656 141.921875 -168.265625 C 135.378906 -157.816406 127.648438 -138.097656 118.734375 -109.109375 C 109.816406 -80.128906 105.359375 -59.785156 105.359375 -48.078125 C 105.359375 -41.941406 106.332031 -37.828125 108.28125 -35.734375 C 110.226562 -33.648438 112.875 -32.609375 116.21875 -32.609375 C 122.070312 -32.046875 128.132812 -37.0625 134.40625 -47.65625 C 140.675781 -58.25 148.550781 -78.875 158.03125 -109.53125 C 166.664062 -136.5625 170.984375 -156.210938 170.984375 -168.484375 C 170.984375 -174.335938 170.078125 -178.378906 168.265625 -180.609375 C 166.453125 -182.835938 163.875 -183.953125 160.53125 -183.953125 Z M 160.53125 -183.953125 "/></g></g></g><g fill="#ffaa04" fill-opacity="0.302"><g transform="translate(1946.107532, 514.340328)"><g><path d="M 109.953125 -221.15625 C 126.109375 -221.15625 137.945312 -218.085938 145.46875 -211.953125 C 153 -205.828125 156.765625 -197.46875 156.765625 -186.875 C 156.765625 -180.46875 155.789062 -174.335938 153.84375 -168.484375 L 115.375 -43.484375 C 114.539062 -40.140625 114.125 -37.210938 114.125 -34.703125 C 114.125 -31.078125 114.820312 -28.21875 116.21875 -26.125 C 117.613281 -24.039062 119.5625 -22.019531 122.0625 -20.0625 C 124.019531 -18.113281 125.414062 -16.507812 126.25 -15.25 C 127.082031 -14 127.222656 -12.398438 126.671875 -10.453125 C 125.273438 -6.828125 122.484375 -4.175781 118.296875 -2.5 C 114.117188 -0.832031 107.710938 0 99.078125 0 L 3.765625 0 C -3.484375 0 -8.78125 -1.179688 -12.125 -3.546875 C -15.46875 -5.921875 -16.582031 -9.054688 -15.46875 -12.953125 C -14.351562 -16.304688 -11.425781 -19.234375 -6.6875 -21.734375 C -2.507812 -23.960938 0.96875 -26.609375 3.75 -29.671875 C 6.539062 -32.742188 8.910156 -37.625 10.859375 -44.3125 L 47.234375 -165.140625 C 48.066406 -167.640625 48.484375 -169.726562 48.484375 -171.40625 C 48.484375 -174.46875 47.785156 -176.90625 46.390625 -178.71875 C 45.003906 -180.53125 42.914062 -182.410156 40.125 -184.359375 C 37.34375 -186.585938 35.394531 -188.539062 34.28125 -190.21875 C 33.164062 -191.894531 33.023438 -194.125 33.859375 -196.90625 C 35.535156 -203.3125 44.316406 -208.953125 60.203125 -213.828125 C 76.085938 -218.710938 92.671875 -221.15625 109.953125 -221.15625 Z M 137.953125 -313.546875 C 148.828125 -313.546875 157.882812 -309.988281 165.125 -302.875 C 172.375 -295.769531 176 -287.0625 176 -276.75 C 176 -269.507812 174.113281 -262.40625 170.34375 -255.4375 C 166.582031 -248.46875 161.285156 -242.820312 154.453125 -238.5 C 147.628906 -234.1875 140.039062 -232.03125 131.6875 -232.03125 C 121.09375 -232.03125 112.238281 -235.582031 105.125 -242.6875 C 98.019531 -249.789062 94.332031 -258.640625 94.0625 -269.234375 C 94.0625 -276.203125 95.867188 -283.097656 99.484375 -289.921875 C 103.109375 -296.753906 108.265625 -302.398438 114.953125 -306.859375 C 121.648438 -311.316406 129.316406 -313.546875 137.953125 -313.546875 Z M 137.953125 -313.546875 "/></g></g></g><g fill="#ffaa04" fill-opacity="0.302"><g transform="translate(2099.116314, 514.340328)"><g><path d="M 151.75 -223.25 C 168.757812 -223.25 183.671875 -220.804688 196.484375 -215.921875 C 209.304688 -211.046875 219.269531 -204.359375 226.375 -195.859375 C 233.488281 -187.359375 237.046875 -177.953125 237.046875 -167.640625 C 237.046875 -156.492188 233.210938 -147.296875 225.546875 -140.046875 C 217.878906 -132.804688 207.5 -129.1875 194.40625 -129.1875 C 181.019531 -129.1875 170.5625 -132.597656 163.03125 -139.421875 C 155.507812 -146.253906 151.75 -155.519531 151.75 -167.21875 C 151.75 -172.800781 152.585938 -178.65625 154.265625 -184.78125 C 142.554688 -181.71875 132.171875 -175.65625 123.109375 -166.59375 C 114.054688 -157.539062 108 -145.628906 104.9375 -130.859375 C 103.257812 -122.492188 102.421875 -114.96875 102.421875 -108.28125 C 102.421875 -93.226562 106.601562 -81.800781 114.96875 -74 C 123.332031 -66.195312 135.316406 -62.296875 150.921875 -62.296875 C 159.835938 -62.296875 167.5 -63.195312 173.90625 -65 C 180.320312 -66.8125 186.875 -69.253906 193.5625 -72.328125 C 199.132812 -75.109375 203.175781 -76.5 205.6875 -76.5 C 207.351562 -76.5 208.46875 -76.148438 209.03125 -75.453125 C 209.59375 -74.765625 209.875 -73.304688 209.875 -71.078125 C 210.144531 -60.765625 205.890625 -49.960938 197.109375 -38.671875 C 188.335938 -27.378906 176.21875 -17.898438 160.75 -10.234375 C 145.28125 -2.578125 127.929688 1.25 108.703125 1.25 C 88.628906 1.25 70.859375 -2.441406 55.390625 -9.828125 C 39.921875 -17.210938 27.9375 -27.800781 19.4375 -41.59375 C 10.9375 -55.394531 6.6875 -71.492188 6.6875 -89.890625 C 6.6875 -98.523438 7.800781 -108.140625 10.03125 -118.734375 C 17.5625 -153.285156 34.210938 -179.34375 59.984375 -196.90625 C 85.765625 -214.46875 116.351562 -223.25 151.75 -223.25 Z M 151.75 -223.25 "/></g></g></g><g fill="#ffaa04" fill-opacity="0.302"><g transform="translate(2325.703093, 514.340328)"><g><path d="M 141.71875 -223.25 C 177.113281 -223.25 202.753906 -217.601562 218.640625 -206.3125 C 234.523438 -195.019531 242.46875 -180.597656 242.46875 -163.046875 C 242.46875 -157.742188 241.910156 -152.863281 240.796875 -148.40625 C 236.617188 -130.007812 224.984375 -116.835938 205.890625 -108.890625 C 186.804688 -100.953125 164.300781 -96.984375 138.375 -96.984375 C 125.28125 -96.984375 113.019531 -97.820312 101.59375 -99.5 C 101.3125 -85.007812 105.210938 -74.835938 113.296875 -68.984375 C 121.378906 -63.128906 132.664062 -60.203125 147.15625 -60.203125 C 153.84375 -60.203125 160.253906 -60.96875 166.390625 -62.5 C 172.523438 -64.03125 180.328125 -66.328125 189.796875 -69.390625 C 197.597656 -72.179688 202.894531 -73.578125 205.6875 -73.578125 C 208.75 -73.578125 210.28125 -71.765625 210.28125 -68.140625 C 210.5625 -58.390625 206.9375 -48.148438 199.40625 -37.421875 C 191.882812 -26.691406 180.738281 -17.5625 165.96875 -10.03125 C 151.195312 -2.507812 133.359375 1.25 112.453125 1.25 C 81.515625 1.25 56.148438 -6.550781 36.359375 -22.15625 C 16.578125 -37.757812 6.6875 -60.472656 6.6875 -90.296875 C 6.6875 -98.660156 7.800781 -108.414062 10.03125 -119.5625 C 17 -153.84375 32.257812 -179.691406 55.8125 -197.109375 C 79.363281 -214.535156 108 -223.25 141.71875 -223.25 Z M 104.515625 -124.578125 C 105.628906 -124.304688 107.160156 -124.171875 109.109375 -124.171875 C 120.816406 -124.171875 129.734375 -129.601562 135.859375 -140.46875 C 141.992188 -151.332031 144.925781 -163.457031 144.65625 -176.84375 C 144.375 -184.644531 142.140625 -188.546875 137.953125 -188.546875 C 134.890625 -188.546875 131.265625 -186.101562 127.078125 -181.21875 C 122.898438 -176.34375 118.789062 -169.03125 114.75 -159.28125 C 110.71875 -149.53125 107.304688 -137.960938 104.515625 -124.578125 Z M 104.515625 -124.578125 "/></g></g></g><g fill="#ffaa04" fill-opacity="0.302"><g transform="translate(2559.81478, 514.340328)"><g/></g></g><g fill="#ffaa04" fill-opacity="0.302"><g transform="translate(2643.426042, 514.340328)"><g><path d="M 272.578125 -278.421875 C 282.890625 -278.421875 290.898438 -276.191406 296.609375 -271.734375 C 302.328125 -267.273438 305.1875 -261.144531 305.1875 -253.34375 C 305.1875 -249.445312 304.628906 -245.6875 303.515625 -242.0625 L 292.640625 -203.171875 C 290.691406 -195.929688 287.488281 -190.773438 283.03125 -187.703125 C 278.570312 -184.640625 272.71875 -183.109375 265.46875 -183.109375 C 258.5 -183.109375 252.921875 -184.570312 248.734375 -187.5 C 244.554688 -190.425781 241.492188 -195.234375 239.546875 -201.921875 L 232.859375 -225.75 C 231.742188 -229.9375 230.347656 -232.722656 228.671875 -234.109375 C 227.003906 -235.503906 223.523438 -236.203125 218.234375 -236.203125 L 176.421875 -236.203125 L 153.015625 -153.421875 L 160.953125 -153.421875 C 164.859375 -153.421875 168.273438 -153.976562 171.203125 -155.09375 C 174.128906 -156.207031 177.265625 -158.300781 180.609375 -161.375 L 193.5625 -172.234375 C 198.300781 -176.421875 202.550781 -179.421875 206.3125 -181.234375 C 210.070312 -183.046875 214.046875 -183.953125 218.234375 -183.953125 C 223.523438 -183.953125 227.910156 -182.414062 231.390625 -179.34375 C 234.878906 -176.28125 236.625 -171.960938 236.625 -166.390625 C 236.625 -164.160156 236.207031 -161.515625 235.375 -158.453125 L 216.96875 -94.90625 C 212.789062 -81.25 205.269531 -74.421875 194.40625 -74.421875 C 185.476562 -74.421875 178.507812 -79.019531 173.5 -88.21875 L 165.96875 -102.421875 C 164.019531 -106.328125 162.207031 -108.835938 160.53125 -109.953125 C 158.863281 -111.066406 156.359375 -111.625 153.015625 -111.625 L 140.890625 -111.625 L 123.328125 -49.328125 C 122.773438 -47.660156 122.5 -45.429688 122.5 -42.640625 C 122.5 -38.742188 123.398438 -35.539062 125.203125 -33.03125 C 127.015625 -30.519531 129.734375 -27.867188 133.359375 -25.078125 C 136.421875 -22.578125 138.507812 -20.554688 139.625 -19.015625 C 140.75 -17.484375 141.3125 -15.601562 141.3125 -13.375 C 141.3125 -8.363281 139.078125 -4.878906 134.609375 -2.921875 C 130.148438 -0.972656 123.601562 0 114.96875 0 L 10.03125 0 C 2.78125 0 -2.648438 -1.320312 -6.265625 -3.96875 C -9.890625 -6.613281 -11.144531 -10.304688 -10.03125 -15.046875 C -9.476562 -17.554688 -8.429688 -19.578125 -6.890625 -21.109375 C -5.359375 -22.640625 -3.0625 -24.382812 0 -26.34375 C 4.738281 -29.125 8.5 -32.046875 11.28125 -35.109375 C 14.070312 -38.179688 16.304688 -42.921875 17.984375 -49.328125 L 69.390625 -229.515625 C 70.515625 -233.140625 71.078125 -236.484375 71.078125 -239.546875 C 71.078125 -242.890625 70.585938 -245.675781 69.609375 -247.90625 C 68.628906 -250.132812 67.164062 -252.503906 65.21875 -255.015625 C 62.707031 -258.640625 61.453125 -261.566406 61.453125 -263.796875 C 61.453125 -264.628906 61.734375 -266.160156 62.296875 -268.390625 C 63.410156 -272.015625 65.914062 -274.59375 69.8125 -276.125 C 73.71875 -277.65625 79.429688 -278.421875 86.953125 -278.421875 Z M 272.578125 -278.421875 "/></g></g></g><g fill="#ffaa04" fill-opacity="0.302"><g transform="translate(2907.219855, 514.340328)"><g><path d="M 161.796875 -221.15625 C 199.691406 -221.15625 227.628906 -213.488281 245.609375 -198.15625 C 263.585938 -182.832031 272.578125 -162.765625 272.578125 -137.953125 C 272.578125 -129.597656 271.460938 -120.265625 269.234375 -109.953125 C 263.929688 -87.097656 254.035156 -67.097656 239.546875 -49.953125 C 225.054688 -32.816406 207.289062 -19.578125 186.25 -10.234375 C 165.207031 -0.898438 142.421875 3.765625 117.890625 3.765625 C 79.148438 3.765625 50.515625 -3.96875 31.984375 -19.4375 C 13.453125 -34.90625 4.1875 -55.460938 4.1875 -81.109375 C 4.1875 -89.742188 5.300781 -99.359375 7.53125 -109.953125 C 12.820312 -131.691406 22.921875 -150.988281 37.828125 -167.84375 C 52.742188 -184.707031 71 -197.804688 92.59375 -207.140625 C 114.195312 -216.484375 137.265625 -221.15625 161.796875 -221.15625 Z M 160.53125 -183.953125 C 154.675781 -183.953125 148.472656 -178.722656 141.921875 -168.265625 C 135.378906 -157.816406 127.648438 -138.097656 118.734375 -109.109375 C 109.816406 -80.128906 105.359375 -59.785156 105.359375 -48.078125 C 105.359375 -41.941406 106.332031 -37.828125 108.28125 -35.734375 C 110.226562 -33.648438 112.875 -32.609375 116.21875 -32.609375 C 122.070312 -32.046875 128.132812 -37.0625 134.40625 -47.65625 C 140.675781 -58.25 148.550781 -78.875 158.03125 -109.53125 C 166.664062 -136.5625 170.984375 -156.210938 170.984375 -168.484375 C 170.984375 -174.335938 170.078125 -178.378906 168.265625 -180.609375 C 166.453125 -182.835938 163.875 -183.953125 160.53125 -183.953125 Z M 160.53125 -183.953125 "/></g></g></g><g fill="#ffaa04" fill-opacity="0.302"><g transform="translate(3181.464961, 514.340328)"><g><path d="M 161.796875 -221.15625 C 199.691406 -221.15625 227.628906 -213.488281 245.609375 -198.15625 C 263.585938 -182.832031 272.578125 -162.765625 272.578125 -137.953125 C 272.578125 -129.597656 271.460938 -120.265625 269.234375 -109.953125 C 263.929688 -87.097656 254.035156 -67.097656 239.546875 -49.953125 C 225.054688 -32.816406 207.289062 -19.578125 186.25 -10.234375 C 165.207031 -0.898438 142.421875 3.765625 117.890625 3.765625 C 79.148438 3.765625 50.515625 -3.96875 31.984375 -19.4375 C 13.453125 -34.90625 4.1875 -55.460938 4.1875 -81.109375 C 4.1875 -89.742188 5.300781 -99.359375 7.53125 -109.953125 C 12.820312 -131.691406 22.921875 -150.988281 37.828125 -167.84375 C 52.742188 -184.707031 71 -197.804688 92.59375 -207.140625 C 114.195312 -216.484375 137.265625 -221.15625 161.796875 -221.15625 Z M 160.53125 -183.953125 C 154.675781 -183.953125 148.472656 -178.722656 141.921875 -168.265625 C 135.378906 -157.816406 127.648438 -138.097656 118.734375 -109.109375 C 109.816406 -80.128906 105.359375 -59.785156 105.359375 -48.078125 C 105.359375 -41.941406 106.332031 -37.828125 108.28125 -35.734375 C 110.226562 -33.648438 112.875 -32.609375 116.21875 -32.609375 C 122.070312 -32.046875 128.132812 -37.0625 134.40625 -47.65625 C 140.675781 -58.25 148.550781 -78.875 158.03125 -109.53125 C 166.664062 -136.5625 170.984375 -156.210938 170.984375 -168.484375 C 170.984375 -174.335938 170.078125 -178.378906 168.265625 -180.609375 C 166.453125 -182.835938 163.875 -183.953125 160.53125 -183.953125 Z M 160.53125 -183.953125 "/></g></g></g><g fill="#ffaa04" fill-opacity="0.302"><g transform="translate(3455.710068, 514.340328)"><g><path d="M 233.703125 -60.203125 C 233.140625 -57.972656 232.859375 -56.441406 232.859375 -55.609375 C 232.859375 -53.648438 233.414062 -52.113281 234.53125 -51 C 235.644531 -49.882812 237.039062 -49.328125 238.71875 -49.328125 C 242.0625 -49.328125 244.914062 -50.789062 247.28125 -53.71875 C 249.65625 -56.644531 251.257812 -58.109375 252.09375 -58.109375 C 253.488281 -58.109375 254.601562 -57.128906 255.4375 -55.171875 C 256.269531 -53.222656 256.6875 -51 256.6875 -48.5 C 256.96875 -40.96875 254.109375 -33.300781 248.109375 -25.5 C 242.117188 -17.695312 234.109375 -11.285156 224.078125 -6.265625 C 214.046875 -1.253906 203.175781 1.25 191.46875 1.25 C 177.53125 1.25 165.40625 -1.394531 155.09375 -6.6875 C 144.789062 -11.976562 137.6875 -18.945312 133.78125 -27.59375 C 126.257812 -17.832031 117.617188 -10.582031 107.859375 -5.84375 C 98.109375 -1.113281 87.796875 1.25 76.921875 1.25 C 64.097656 1.25 52.179688 -1.953125 41.171875 -8.359375 C 30.171875 -14.773438 21.394531 -23.90625 14.84375 -35.75 C 8.289062 -47.59375 5.015625 -61.039062 5.015625 -76.09375 C 5.015625 -101.445312 9.820312 -125.34375 19.4375 -147.78125 C 29.050781 -170.21875 42.5 -188.332031 59.78125 -202.125 C 77.0625 -215.925781 96.710938 -222.828125 118.734375 -222.828125 C 130.710938 -222.828125 140.953125 -221.429688 149.453125 -218.640625 C 157.953125 -215.859375 165.6875 -211.679688 172.65625 -206.109375 L 186.875 -252.921875 C 187.707031 -255.429688 188.125 -257.523438 188.125 -259.203125 C 188.125 -262.265625 187.359375 -264.769531 185.828125 -266.71875 C 184.296875 -268.675781 182.273438 -270.628906 179.765625 -272.578125 C 176.984375 -274.804688 174.960938 -276.753906 173.703125 -278.421875 C 172.453125 -280.097656 172.242188 -282.332031 173.078125 -285.125 C 174.753906 -291.53125 183.535156 -297.101562 199.421875 -301.84375 C 215.304688 -306.582031 231.890625 -308.953125 249.171875 -308.953125 C 265.328125 -308.953125 277.238281 -305.882812 284.90625 -299.75 C 292.570312 -293.613281 296.40625 -285.253906 296.40625 -274.671875 C 296.40625 -268.535156 295.429688 -262.539062 293.484375 -256.6875 Z M 163.875 -177.671875 C 159.414062 -181.578125 154.539062 -183.53125 149.25 -183.53125 C 141.164062 -183.53125 133.222656 -177.535156 125.421875 -165.546875 C 117.617188 -153.566406 111.347656 -139.078125 106.609375 -122.078125 C 101.867188 -105.078125 99.640625 -89.75 99.921875 -76.09375 C 99.921875 -60.757812 104.9375 -53.09375 114.96875 -53.09375 C 118.59375 -53.09375 121.65625 -54.554688 124.15625 -57.484375 C 126.664062 -60.410156 129.035156 -65.21875 131.265625 -71.90625 Z M 163.875 -177.671875 "/></g></g></g><g fill="#ffaa04" fill-opacity="0.502"><g transform="translate(62.533179, 505.232662)"><g><path d="M 325.671875 -278.421875 C 337.097656 -278.421875 342.8125 -274.800781 342.8125 -267.5625 C 342.8125 -265.613281 342.671875 -264.21875 342.390625 -263.375 C 341.554688 -260.59375 340.300781 -258.429688 338.625 -256.890625 C 336.957031 -255.359375 334.59375 -253.617188 331.53125 -251.671875 C 327.34375 -249.160156 323.851562 -246.375 321.0625 -243.3125 C 318.28125 -240.25 315.914062 -235.507812 313.96875 -229.09375 L 262.125 -43.484375 C 257.382812 -26.753906 251.460938 -15.046875 244.359375 -8.359375 C 237.253906 -1.671875 227.429688 1.671875 214.890625 1.671875 C 203.734375 1.671875 194.460938 -1.601562 187.078125 -8.15625 C 179.691406 -14.707031 172.796875 -24.8125 166.390625 -38.46875 L 103.265625 -171.40625 L 68.140625 -49.328125 C 67.304688 -45.703125 66.890625 -42.5 66.890625 -39.71875 C 66.890625 -36.09375 67.515625 -33.09375 68.765625 -30.71875 C 70.023438 -28.351562 71.769531 -25.914062 74 -23.40625 C 77.0625 -19.789062 78.59375 -16.726562 78.59375 -14.21875 C 78.59375 -12.539062 78.453125 -11.285156 78.171875 -10.453125 C 77.054688 -6.546875 74.546875 -3.828125 70.640625 -2.296875 C 66.742188 -0.765625 60.894531 0 53.09375 0 L 7.53125 0 C -3.894531 0 -9.609375 -3.625 -9.609375 -10.875 C -9.609375 -12.820312 -9.472656 -14.210938 -9.203125 -15.046875 C -8.359375 -17.835938 -7.097656 -20 -5.421875 -21.53125 C -3.753906 -23.0625 -1.390625 -24.800781 1.671875 -26.75 C 5.847656 -29.257812 9.328125 -32.046875 12.109375 -35.109375 C 14.898438 -38.179688 17.273438 -42.921875 19.234375 -49.328125 L 72.328125 -237.046875 L 65.640625 -250.84375 C 62.847656 -256.414062 61.453125 -261.289062 61.453125 -265.46875 C 61.453125 -274.101562 67.023438 -278.421875 78.171875 -278.421875 L 140.046875 -278.421875 C 148.960938 -278.421875 155.71875 -276.398438 160.3125 -272.359375 C 164.914062 -268.328125 169.867188 -261.15625 175.171875 -250.84375 L 236.203125 -128.34375 L 265.046875 -229.09375 C 265.890625 -233 266.3125 -236.207031 266.3125 -238.71875 C 266.3125 -242.34375 265.679688 -245.335938 264.421875 -247.703125 C 263.171875 -250.066406 261.429688 -252.503906 259.203125 -255.015625 C 256.128906 -258.640625 254.59375 -261.707031 254.59375 -264.21875 C 254.59375 -265.882812 254.734375 -267.140625 255.015625 -267.984375 C 256.128906 -271.878906 258.632812 -274.59375 262.53125 -276.125 C 266.4375 -277.65625 272.296875 -278.421875 280.109375 -278.421875 Z M 325.671875 -278.421875 "/></g></g></g><g fill="#ffaa04" fill-opacity="0.502"><g transform="translate(366.460456, 505.232662)"><g><path d="M 141.71875 -223.25 C 177.113281 -223.25 202.753906 -217.601562 218.640625 -206.3125 C 234.523438 -195.019531 242.46875 -180.597656 242.46875 -163.046875 C 242.46875 -157.742188 241.910156 -152.863281 240.796875 -148.40625 C 236.617188 -130.007812 224.984375 -116.835938 205.890625 -108.890625 C 186.804688 -100.953125 164.300781 -96.984375 138.375 -96.984375 C 125.28125 -96.984375 113.019531 -97.820312 101.59375 -99.5 C 101.3125 -85.007812 105.210938 -74.835938 113.296875 -68.984375 C 121.378906 -63.128906 132.664062 -60.203125 147.15625 -60.203125 C 153.84375 -60.203125 160.253906 -60.96875 166.390625 -62.5 C 172.523438 -64.03125 180.328125 -66.328125 189.796875 -69.390625 C 197.597656 -72.179688 202.894531 -73.578125 205.6875 -73.578125 C 208.75 -73.578125 210.28125 -71.765625 210.28125 -68.140625 C 210.5625 -58.390625 206.9375 -48.148438 199.40625 -37.421875 C 191.882812 -26.691406 180.738281 -17.5625 165.96875 -10.03125 C 151.195312 -2.507812 133.359375 1.25 112.453125 1.25 C 81.515625 1.25 56.148438 -6.550781 36.359375 -22.15625 C 16.578125 -37.757812 6.6875 -60.472656 6.6875 -90.296875 C 6.6875 -98.660156 7.800781 -108.414062 10.03125 -119.5625 C 17 -153.84375 32.257812 -179.691406 55.8125 -197.109375 C 79.363281 -214.535156 108 -223.25 141.71875 -223.25 Z M 104.515625 -124.578125 C 105.628906 -124.304688 107.160156 -124.171875 109.109375 -124.171875 C 120.816406 -124.171875 129.734375 -129.601562 135.859375 -140.46875 C 141.992188 -151.332031 144.925781 -163.457031 144.65625 -176.84375 C 144.375 -184.644531 142.140625 -188.546875 137.953125 -188.546875 C 134.890625 -188.546875 131.265625 -186.101562 127.078125 -181.21875 C 122.898438 -176.34375 118.789062 -169.03125 114.75 -159.28125 C 110.71875 -149.53125 107.304688 -137.960938 104.515625 -124.578125 Z M 104.515625 -124.578125 "/></g></g></g><g fill="#ffaa04" fill-opacity="0.502"><g transform="translate(600.572187, 505.232662)"><g><path d="M 392.5625 -161.796875 C 392.5625 -136.984375 383.921875 -111.617188 366.640625 -85.703125 C 349.359375 -59.785156 327.546875 -38.394531 301.203125 -21.53125 C 274.867188 -4.664062 249.019531 3.765625 223.65625 3.765625 C 203.59375 3.765625 186.59375 0.28125 172.65625 -6.6875 C 158.71875 -13.65625 149.660156 -23.691406 145.484375 -36.796875 C 135.171875 -24.253906 123.742188 -14.773438 111.203125 -8.359375 C 98.660156 -1.953125 85.5625 1.25 71.90625 1.25 C 52.957031 1.25 37.554688 -3.414062 25.703125 -12.75 C 13.859375 -22.082031 7.9375 -35.8125 7.9375 -53.9375 C 7.9375 -63.40625 9.472656 -73.15625 12.546875 -83.1875 L 35.953125 -165.140625 C 36.515625 -167.367188 36.796875 -169.039062 36.796875 -170.15625 C 36.796875 -172.9375 36.097656 -175.300781 34.703125 -177.25 C 33.304688 -179.207031 31.351562 -181.300781 28.84375 -183.53125 C 24.664062 -187.15625 22.578125 -190.359375 22.578125 -193.140625 C 22.296875 -197.046875 24.660156 -201.226562 29.671875 -205.6875 C 34.691406 -210.144531 41.726562 -213.835938 50.78125 -216.765625 C 59.84375 -219.691406 70.085938 -221.15625 81.515625 -221.15625 C 100.191406 -221.15625 114.753906 -216.625 125.203125 -207.5625 C 135.660156 -198.507812 140.890625 -186.734375 140.890625 -172.234375 C 140.890625 -165.828125 139.773438 -158.863281 137.546875 -151.34375 L 116.21875 -80.265625 C 115.101562 -76.367188 114.546875 -73.722656 114.546875 -72.328125 C 114.546875 -68.703125 115.585938 -65.910156 117.671875 -63.953125 C 119.765625 -62.003906 122.625 -61.03125 126.25 -61.03125 C 131.269531 -61.03125 135.519531 -62.769531 139 -66.25 C 142.488281 -69.738281 145.90625 -75.382812 149.25 -83.1875 L 173.078125 -165.140625 C 173.628906 -167.367188 173.90625 -169.039062 173.90625 -170.15625 C 173.90625 -172.9375 173.207031 -175.300781 171.8125 -177.25 C 170.425781 -179.207031 168.476562 -181.300781 165.96875 -183.53125 C 161.789062 -187.15625 159.703125 -190.359375 159.703125 -193.140625 C 159.421875 -197.046875 161.785156 -201.226562 166.796875 -205.6875 C 171.816406 -210.144531 178.851562 -213.835938 187.90625 -216.765625 C 196.96875 -219.691406 207.210938 -221.15625 218.640625 -221.15625 C 237.597656 -221.15625 252.234375 -216.695312 262.546875 -207.78125 C 272.859375 -198.863281 278.015625 -187.015625 278.015625 -172.234375 C 278.015625 -166.390625 276.898438 -159.425781 274.671875 -151.34375 L 247.5 -61.875 C 246.9375 -60.476562 246.65625 -58.390625 246.65625 -55.609375 C 246.65625 -51.984375 247.910156 -49.191406 250.421875 -47.234375 C 252.929688 -45.285156 256.414062 -44.3125 260.875 -44.3125 C 267 -44.3125 274.171875 -47.03125 282.390625 -52.46875 C 290.617188 -57.90625 298.703125 -65.707031 306.640625 -75.875 C 314.585938 -86.050781 321.070312 -98.109375 326.09375 -112.046875 C 314.9375 -121.796875 307.054688 -131.40625 302.453125 -140.875 C 297.859375 -150.351562 295.5625 -160.113281 295.5625 -170.15625 C 295.5625 -184.363281 299.460938 -196.414062 307.265625 -206.3125 C 315.078125 -216.207031 326.367188 -221.15625 341.140625 -221.15625 C 355.910156 -221.15625 368.171875 -215.859375 377.921875 -205.265625 C 387.679688 -194.671875 392.5625 -180.179688 392.5625 -161.796875 Z M 392.5625 -161.796875 "/></g></g></g><g fill="#ffaa04" fill-opacity="0.502"><g transform="translate(988.110774, 505.232662)"><g/></g></g><g fill="#ffaa04" fill-opacity="0.502"><g transform="translate(1071.722036, 505.232662)"><g><path d="M 145.484375 2.515625 C 122.078125 2.515625 101.035156 -1.800781 82.359375 -10.4375 C 63.679688 -19.082031 48.835938 -31.835938 37.828125 -48.703125 C 26.828125 -65.566406 21.328125 -85.984375 21.328125 -109.953125 C 21.328125 -126.671875 24.25 -144.785156 30.09375 -164.296875 C 42.914062 -206.109375 62.285156 -236.28125 88.203125 -254.8125 C 114.128906 -273.34375 141.863281 -282.609375 171.40625 -282.609375 C 187.289062 -282.609375 201.363281 -280.238281 213.625 -275.5 C 225.894531 -270.757812 237.1875 -263.929688 247.5 -255.015625 L 258.78125 -263.796875 C 266.300781 -269.648438 272.640625 -273.691406 277.796875 -275.921875 C 282.953125 -278.148438 288.738281 -279.265625 295.15625 -279.265625 C 302.125 -279.265625 307.695312 -277.726562 311.875 -274.65625 C 316.050781 -271.59375 318.140625 -267.132812 318.140625 -261.28125 C 318.140625 -258.21875 317.582031 -255.15625 316.46875 -252.09375 L 293.0625 -186.875 C 290.550781 -179.351562 287.550781 -174.054688 284.0625 -170.984375 C 280.582031 -167.921875 275.359375 -166.390625 268.390625 -166.390625 C 261.148438 -166.390625 255.226562 -168.96875 250.625 -174.125 C 246.03125 -179.28125 240.804688 -188.128906 234.953125 -200.671875 C 228.265625 -213.765625 222.828125 -222.398438 218.640625 -226.578125 C 214.460938 -230.765625 208.332031 -232.859375 200.25 -232.859375 C 188.820312 -232.859375 177.8125 -225.820312 167.21875 -211.75 C 156.632812 -197.675781 147.019531 -176.5625 138.375 -148.40625 C 131.132812 -124.71875 127.515625 -104.929688 127.515625 -89.046875 C 127.515625 -75.109375 130.160156 -64.722656 135.453125 -57.890625 C 140.742188 -51.066406 147.847656 -47.65625 156.765625 -47.65625 C 169.867188 -47.65625 180.671875 -50.582031 189.171875 -56.4375 C 197.671875 -62.289062 206.378906 -70.234375 215.296875 -80.265625 C 220.867188 -86.398438 225.394531 -90.929688 228.875 -93.859375 C 232.363281 -96.785156 236.0625 -98.25 239.96875 -98.25 C 244.988281 -98.25 250.285156 -95.738281 255.859375 -90.71875 C 261.429688 -85.695312 264.078125 -80.679688 263.796875 -75.671875 C 264.078125 -69.535156 259.128906 -60.054688 248.953125 -47.234375 C 238.785156 -34.421875 224.710938 -22.925781 206.734375 -12.75 C 188.753906 -2.570312 168.335938 2.515625 145.484375 2.515625 Z M 145.484375 2.515625 "/></g></g></g><g fill="#ffaa04" fill-opacity="0.502"><g transform="translate(1361.01731, 505.232662)"><g><path d="M 256.265625 -57.6875 C 255.710938 -56.570312 255.4375 -54.898438 255.4375 -52.671875 C 255.4375 -50.722656 255.921875 -49.191406 256.890625 -48.078125 C 257.867188 -46.960938 259.195312 -46.40625 260.875 -46.40625 C 264.21875 -46.40625 267.070312 -47.867188 269.4375 -50.796875 C 271.8125 -53.722656 273.414062 -55.1875 274.25 -55.1875 C 275.644531 -55.1875 276.757812 -54.28125 277.59375 -52.46875 C 278.425781 -50.65625 278.84375 -48.492188 278.84375 -45.984375 C 279.125 -37.898438 276.476562 -30.023438 270.90625 -22.359375 C 265.332031 -14.703125 257.179688 -8.429688 246.453125 -3.546875 C 235.722656 1.328125 222.832031 3.765625 207.78125 3.765625 C 189.382812 3.765625 174.75 -0.484375 163.875 -8.984375 C 153.007812 -17.484375 147.4375 -28.84375 147.15625 -43.0625 C 147.15625 -53.375 149.664062 -64.941406 154.6875 -77.765625 L 177.671875 -137.953125 C 179.066406 -141.578125 179.765625 -144.503906 179.765625 -146.734375 C 179.765625 -150.359375 178.578125 -153.21875 176.203125 -155.3125 C 173.835938 -157.40625 170.984375 -158.453125 167.640625 -158.453125 C 162.347656 -158.453125 156.984375 -156.007812 151.546875 -151.125 C 146.109375 -146.25 141.71875 -138.378906 138.375 -127.515625 L 138.375 -128.34375 L 112.046875 -43.484375 C 111.203125 -40.140625 110.78125 -37.210938 110.78125 -34.703125 C 110.78125 -31.078125 111.476562 -28.21875 112.875 -26.125 C 114.269531 -24.039062 116.222656 -22.019531 118.734375 -20.0625 C 120.679688 -18.113281 122.070312 -16.507812 122.90625 -15.25 C 123.75 -14 123.890625 -12.398438 123.328125 -10.453125 C 121.929688 -6.828125 119.144531 -4.175781 114.96875 -2.5 C 110.789062 -0.832031 104.378906 0 95.734375 0 L 0.421875 0 C -6.828125 0 -12.125 -1.179688 -15.46875 -3.546875 C -18.8125 -5.921875 -19.925781 -9.054688 -18.8125 -12.953125 C -17.695312 -16.304688 -14.769531 -19.234375 -10.03125 -21.734375 C -5.851562 -23.960938 -2.375 -26.609375 0.40625 -29.671875 C 3.195312 -32.742188 5.570312 -37.625 7.53125 -44.3125 L 71.078125 -252.921875 C 71.910156 -255.429688 72.328125 -257.523438 72.328125 -259.203125 C 72.328125 -262.265625 71.554688 -264.769531 70.015625 -266.71875 C 68.484375 -268.675781 66.46875 -270.628906 63.96875 -272.578125 C 61.175781 -274.804688 59.148438 -276.753906 57.890625 -278.421875 C 56.640625 -280.097656 56.4375 -282.332031 57.28125 -285.125 C 58.945312 -291.53125 67.722656 -297.101562 83.609375 -301.84375 C 99.492188 -306.582031 116.078125 -308.953125 133.359375 -308.953125 C 149.523438 -308.953125 161.441406 -305.882812 169.109375 -299.75 C 176.773438 -293.613281 180.609375 -285.253906 180.609375 -274.671875 C 180.609375 -268.535156 179.628906 -262.539062 177.671875 -256.6875 L 155.09375 -183.109375 C 165.96875 -197.328125 177.46875 -207.222656 189.59375 -212.796875 C 201.71875 -218.367188 214.882812 -221.15625 229.09375 -221.15625 C 246.09375 -221.15625 259.816406 -216 270.265625 -205.6875 C 280.722656 -195.375 285.953125 -181.992188 285.953125 -165.546875 C 285.953125 -156.910156 284.5625 -148.410156 281.78125 -140.046875 Z M 256.265625 -57.6875 "/></g></g></g><g fill="#ffaa04" fill-opacity="0.502"><g transform="translate(1657.837671, 505.232662)"><g><path d="M 161.796875 -221.15625 C 199.691406 -221.15625 227.628906 -213.488281 245.609375 -198.15625 C 263.585938 -182.832031 272.578125 -162.765625 272.578125 -137.953125 C 272.578125 -129.597656 271.460938 -120.265625 269.234375 -109.953125 C 263.929688 -87.097656 254.035156 -67.097656 239.546875 -49.953125 C 225.054688 -32.816406 207.289062 -19.578125 186.25 -10.234375 C 165.207031 -0.898438 142.421875 3.765625 117.890625 3.765625 C 79.148438 3.765625 50.515625 -3.96875 31.984375 -19.4375 C 13.453125 -34.90625 4.1875 -55.460938 4.1875 -81.109375 C 4.1875 -89.742188 5.300781 -99.359375 7.53125 -109.953125 C 12.820312 -131.691406 22.921875 -150.988281 37.828125 -167.84375 C 52.742188 -184.707031 71 -197.804688 92.59375 -207.140625 C 114.195312 -216.484375 137.265625 -221.15625 161.796875 -221.15625 Z M 160.53125 -183.953125 C 154.675781 -183.953125 148.472656 -178.722656 141.921875 -168.265625 C 135.378906 -157.816406 127.648438 -138.097656 118.734375 -109.109375 C 109.816406 -80.128906 105.359375 -59.785156 105.359375 -48.078125 C 105.359375 -41.941406 106.332031 -37.828125 108.28125 -35.734375 C 110.226562 -33.648438 112.875 -32.609375 116.21875 -32.609375 C 122.070312 -32.046875 128.132812 -37.0625 134.40625 -47.65625 C 140.675781 -58.25 148.550781 -78.875 158.03125 -109.53125 C 166.664062 -136.5625 170.984375 -156.210938 170.984375 -168.484375 C 170.984375 -174.335938 170.078125 -178.378906 168.265625 -180.609375 C 166.453125 -182.835938 163.875 -183.953125 160.53125 -183.953125 Z M 160.53125 -183.953125 "/></g></g></g><g fill="#ffaa04" fill-opacity="0.502"><g transform="translate(1932.082957, 505.232662)"><g><path d="M 109.953125 -221.15625 C 126.109375 -221.15625 137.945312 -218.085938 145.46875 -211.953125 C 153 -205.828125 156.765625 -197.46875 156.765625 -186.875 C 156.765625 -180.46875 155.789062 -174.335938 153.84375 -168.484375 L 115.375 -43.484375 C 114.539062 -40.140625 114.125 -37.210938 114.125 -34.703125 C 114.125 -31.078125 114.820312 -28.21875 116.21875 -26.125 C 117.613281 -24.039062 119.5625 -22.019531 122.0625 -20.0625 C 124.019531 -18.113281 125.414062 -16.507812 126.25 -15.25 C 127.082031 -14 127.222656 -12.398438 126.671875 -10.453125 C 125.273438 -6.828125 122.484375 -4.175781 118.296875 -2.5 C 114.117188 -0.832031 107.710938 0 99.078125 0 L 3.765625 0 C -3.484375 0 -8.78125 -1.179688 -12.125 -3.546875 C -15.46875 -5.921875 -16.582031 -9.054688 -15.46875 -12.953125 C -14.351562 -16.304688 -11.425781 -19.234375 -6.6875 -21.734375 C -2.507812 -23.960938 0.96875 -26.609375 3.75 -29.671875 C 6.539062 -32.742188 8.910156 -37.625 10.859375 -44.3125 L 47.234375 -165.140625 C 48.066406 -167.640625 48.484375 -169.726562 48.484375 -171.40625 C 48.484375 -174.46875 47.785156 -176.90625 46.390625 -178.71875 C 45.003906 -180.53125 42.914062 -182.410156 40.125 -184.359375 C 37.34375 -186.585938 35.394531 -188.539062 34.28125 -190.21875 C 33.164062 -191.894531 33.023438 -194.125 33.859375 -196.90625 C 35.535156 -203.3125 44.316406 -208.953125 60.203125 -213.828125 C 76.085938 -218.710938 92.671875 -221.15625 109.953125 -221.15625 Z M 137.953125 -313.546875 C 148.828125 -313.546875 157.882812 -309.988281 165.125 -302.875 C 172.375 -295.769531 176 -287.0625 176 -276.75 C 176 -269.507812 174.113281 -262.40625 170.34375 -255.4375 C 166.582031 -248.46875 161.285156 -242.820312 154.453125 -238.5 C 147.628906 -234.1875 140.039062 -232.03125 131.6875 -232.03125 C 121.09375 -232.03125 112.238281 -235.582031 105.125 -242.6875 C 98.019531 -249.789062 94.332031 -258.640625 94.0625 -269.234375 C 94.0625 -276.203125 95.867188 -283.097656 99.484375 -289.921875 C 103.109375 -296.753906 108.265625 -302.398438 114.953125 -306.859375 C 121.648438 -311.316406 129.316406 -313.546875 137.953125 -313.546875 Z M 137.953125 -313.546875 "/></g></g></g><g fill="#ffaa04" fill-opacity="0.502"><g transform="translate(2085.09174, 505.232662)"><g><path d="M 151.75 -223.25 C 168.757812 -223.25 183.671875 -220.804688 196.484375 -215.921875 C 209.304688 -211.046875 219.269531 -204.359375 226.375 -195.859375 C 233.488281 -187.359375 237.046875 -177.953125 237.046875 -167.640625 C 237.046875 -156.492188 233.210938 -147.296875 225.546875 -140.046875 C 217.878906 -132.804688 207.5 -129.1875 194.40625 -129.1875 C 181.019531 -129.1875 170.5625 -132.597656 163.03125 -139.421875 C 155.507812 -146.253906 151.75 -155.519531 151.75 -167.21875 C 151.75 -172.800781 152.585938 -178.65625 154.265625 -184.78125 C 142.554688 -181.71875 132.171875 -175.65625 123.109375 -166.59375 C 114.054688 -157.539062 108 -145.628906 104.9375 -130.859375 C 103.257812 -122.492188 102.421875 -114.96875 102.421875 -108.28125 C 102.421875 -93.226562 106.601562 -81.800781 114.96875 -74 C 123.332031 -66.195312 135.316406 -62.296875 150.921875 -62.296875 C 159.835938 -62.296875 167.5 -63.195312 173.90625 -65 C 180.320312 -66.8125 186.875 -69.253906 193.5625 -72.328125 C 199.132812 -75.109375 203.175781 -76.5 205.6875 -76.5 C 207.351562 -76.5 208.46875 -76.148438 209.03125 -75.453125 C 209.59375 -74.765625 209.875 -73.304688 209.875 -71.078125 C 210.144531 -60.765625 205.890625 -49.960938 197.109375 -38.671875 C 188.335938 -27.378906 176.21875 -17.898438 160.75 -10.234375 C 145.28125 -2.578125 127.929688 1.25 108.703125 1.25 C 88.628906 1.25 70.859375 -2.441406 55.390625 -9.828125 C 39.921875 -17.210938 27.9375 -27.800781 19.4375 -41.59375 C 10.9375 -55.394531 6.6875 -71.492188 6.6875 -89.890625 C 6.6875 -98.523438 7.800781 -108.140625 10.03125 -118.734375 C 17.5625 -153.285156 34.210938 -179.34375 59.984375 -196.90625 C 85.765625 -214.46875 116.351562 -223.25 151.75 -223.25 Z M 151.75 -223.25 "/></g></g></g><g fill="#ffaa04" fill-opacity="0.502"><g transform="translate(2311.678519, 505.232662)"><g><path d="M 141.71875 -223.25 C 177.113281 -223.25 202.753906 -217.601562 218.640625 -206.3125 C 234.523438 -195.019531 242.46875 -180.597656 242.46875 -163.046875 C 242.46875 -157.742188 241.910156 -152.863281 240.796875 -148.40625 C 236.617188 -130.007812 224.984375 -116.835938 205.890625 -108.890625 C 186.804688 -100.953125 164.300781 -96.984375 138.375 -96.984375 C 125.28125 -96.984375 113.019531 -97.820312 101.59375 -99.5 C 101.3125 -85.007812 105.210938 -74.835938 113.296875 -68.984375 C 121.378906 -63.128906 132.664062 -60.203125 147.15625 -60.203125 C 153.84375 -60.203125 160.253906 -60.96875 166.390625 -62.5 C 172.523438 -64.03125 180.328125 -66.328125 189.796875 -69.390625 C 197.597656 -72.179688 202.894531 -73.578125 205.6875 -73.578125 C 208.75 -73.578125 210.28125 -71.765625 210.28125 -68.140625 C 210.5625 -58.390625 206.9375 -48.148438 199.40625 -37.421875 C 191.882812 -26.691406 180.738281 -17.5625 165.96875 -10.03125 C 151.195312 -2.507812 133.359375 1.25 112.453125 1.25 C 81.515625 1.25 56.148438 -6.550781 36.359375 -22.15625 C 16.578125 -37.757812 6.6875 -60.472656 6.6875 -90.296875 C 6.6875 -98.660156 7.800781 -108.414062 10.03125 -119.5625 C 17 -153.84375 32.257812 -179.691406 55.8125 -197.109375 C 79.363281 -214.535156 108 -223.25 141.71875 -223.25 Z M 104.515625 -124.578125 C 105.628906 -124.304688 107.160156 -124.171875 109.109375 -124.171875 C 120.816406 -124.171875 129.734375 -129.601562 135.859375 -140.46875 C 141.992188 -151.332031 144.925781 -163.457031 144.65625 -176.84375 C 144.375 -184.644531 142.140625 -188.546875 137.953125 -188.546875 C 134.890625 -188.546875 131.265625 -186.101562 127.078125 -181.21875 C 122.898438 -176.34375 118.789062 -169.03125 114.75 -159.28125 C 110.71875 -149.53125 107.304688 -137.960938 104.515625 -124.578125 Z M 104.515625 -124.578125 "/></g></g></g><g fill="#ffaa04" fill-opacity="0.502"><g transform="translate(2545.790205, 505.232662)"><g/></g></g><g fill="#ffaa04" fill-opacity="0.502"><g transform="translate(2629.401468, 505.232662)"><g><path d="M 272.578125 -278.421875 C 282.890625 -278.421875 290.898438 -276.191406 296.609375 -271.734375 C 302.328125 -267.273438 305.1875 -261.144531 305.1875 -253.34375 C 305.1875 -249.445312 304.628906 -245.6875 303.515625 -242.0625 L 292.640625 -203.171875 C 290.691406 -195.929688 287.488281 -190.773438 283.03125 -187.703125 C 278.570312 -184.640625 272.71875 -183.109375 265.46875 -183.109375 C 258.5 -183.109375 252.921875 -184.570312 248.734375 -187.5 C 244.554688 -190.425781 241.492188 -195.234375 239.546875 -201.921875 L 232.859375 -225.75 C 231.742188 -229.9375 230.347656 -232.722656 228.671875 -234.109375 C 227.003906 -235.503906 223.523438 -236.203125 218.234375 -236.203125 L 176.421875 -236.203125 L 153.015625 -153.421875 L 160.953125 -153.421875 C 164.859375 -153.421875 168.273438 -153.976562 171.203125 -155.09375 C 174.128906 -156.207031 177.265625 -158.300781 180.609375 -161.375 L 193.5625 -172.234375 C 198.300781 -176.421875 202.550781 -179.421875 206.3125 -181.234375 C 210.070312 -183.046875 214.046875 -183.953125 218.234375 -183.953125 C 223.523438 -183.953125 227.910156 -182.414062 231.390625 -179.34375 C 234.878906 -176.28125 236.625 -171.960938 236.625 -166.390625 C 236.625 -164.160156 236.207031 -161.515625 235.375 -158.453125 L 216.96875 -94.90625 C 212.789062 -81.25 205.269531 -74.421875 194.40625 -74.421875 C 185.476562 -74.421875 178.507812 -79.019531 173.5 -88.21875 L 165.96875 -102.421875 C 164.019531 -106.328125 162.207031 -108.835938 160.53125 -109.953125 C 158.863281 -111.066406 156.359375 -111.625 153.015625 -111.625 L 140.890625 -111.625 L 123.328125 -49.328125 C 122.773438 -47.660156 122.5 -45.429688 122.5 -42.640625 C 122.5 -38.742188 123.398438 -35.539062 125.203125 -33.03125 C 127.015625 -30.519531 129.734375 -27.867188 133.359375 -25.078125 C 136.421875 -22.578125 138.507812 -20.554688 139.625 -19.015625 C 140.75 -17.484375 141.3125 -15.601562 141.3125 -13.375 C 141.3125 -8.363281 139.078125 -4.878906 134.609375 -2.921875 C 130.148438 -0.972656 123.601562 0 114.96875 0 L 10.03125 0 C 2.78125 0 -2.648438 -1.320312 -6.265625 -3.96875 C -9.890625 -6.613281 -11.144531 -10.304688 -10.03125 -15.046875 C -9.476562 -17.554688 -8.429688 -19.578125 -6.890625 -21.109375 C -5.359375 -22.640625 -3.0625 -24.382812 0 -26.34375 C 4.738281 -29.125 8.5 -32.046875 11.28125 -35.109375 C 14.070312 -38.179688 16.304688 -42.921875 17.984375 -49.328125 L 69.390625 -229.515625 C 70.515625 -233.140625 71.078125 -236.484375 71.078125 -239.546875 C 71.078125 -242.890625 70.585938 -245.675781 69.609375 -247.90625 C 68.628906 -250.132812 67.164062 -252.503906 65.21875 -255.015625 C 62.707031 -258.640625 61.453125 -261.566406 61.453125 -263.796875 C 61.453125 -264.628906 61.734375 -266.160156 62.296875 -268.390625 C 63.410156 -272.015625 65.914062 -274.59375 69.8125 -276.125 C 73.71875 -277.65625 79.429688 -278.421875 86.953125 -278.421875 Z M 272.578125 -278.421875 "/></g></g></g><g fill="#ffaa04" fill-opacity="0.502"><g transform="translate(2893.19528, 505.232662)"><g><path d="M 161.796875 -221.15625 C 199.691406 -221.15625 227.628906 -213.488281 245.609375 -198.15625 C 263.585938 -182.832031 272.578125 -162.765625 272.578125 -137.953125 C 272.578125 -129.597656 271.460938 -120.265625 269.234375 -109.953125 C 263.929688 -87.097656 254.035156 -67.097656 239.546875 -49.953125 C 225.054688 -32.816406 207.289062 -19.578125 186.25 -10.234375 C 165.207031 -0.898438 142.421875 3.765625 117.890625 3.765625 C 79.148438 3.765625 50.515625 -3.96875 31.984375 -19.4375 C 13.453125 -34.90625 4.1875 -55.460938 4.1875 -81.109375 C 4.1875 -89.742188 5.300781 -99.359375 7.53125 -109.953125 C 12.820312 -131.691406 22.921875 -150.988281 37.828125 -167.84375 C 52.742188 -184.707031 71 -197.804688 92.59375 -207.140625 C 114.195312 -216.484375 137.265625 -221.15625 161.796875 -221.15625 Z M 160.53125 -183.953125 C 154.675781 -183.953125 148.472656 -178.722656 141.921875 -168.265625 C 135.378906 -157.816406 127.648438 -138.097656 118.734375 -109.109375 C 109.816406 -80.128906 105.359375 -59.785156 105.359375 -48.078125 C 105.359375 -41.941406 106.332031 -37.828125 108.28125 -35.734375 C 110.226562 -33.648438 112.875 -32.609375 116.21875 -32.609375 C 122.070312 -32.046875 128.132812 -37.0625 134.40625 -47.65625 C 140.675781 -58.25 148.550781 -78.875 158.03125 -109.53125 C 166.664062 -136.5625 170.984375 -156.210938 170.984375 -168.484375 C 170.984375 -174.335938 170.078125 -178.378906 168.265625 -180.609375 C 166.453125 -182.835938 163.875 -183.953125 160.53125 -183.953125 Z M 160.53125 -183.953125 "/></g></g></g><g fill="#ffaa04" fill-opacity="0.502"><g transform="translate(3167.440387, 505.232662)"><g><path d="M 161.796875 -221.15625 C 199.691406 -221.15625 227.628906 -213.488281 245.609375 -198.15625 C 263.585938 -182.832031 272.578125 -162.765625 272.578125 -137.953125 C 272.578125 -129.597656 271.460938 -120.265625 269.234375 -109.953125 C 263.929688 -87.097656 254.035156 -67.097656 239.546875 -49.953125 C 225.054688 -32.816406 207.289062 -19.578125 186.25 -10.234375 C 165.207031 -0.898438 142.421875 3.765625 117.890625 3.765625 C 79.148438 3.765625 50.515625 -3.96875 31.984375 -19.4375 C 13.453125 -34.90625 4.1875 -55.460938 4.1875 -81.109375 C 4.1875 -89.742188 5.300781 -99.359375 7.53125 -109.953125 C 12.820312 -131.691406 22.921875 -150.988281 37.828125 -167.84375 C 52.742188 -184.707031 71 -197.804688 92.59375 -207.140625 C 114.195312 -216.484375 137.265625 -221.15625 161.796875 -221.15625 Z M 160.53125 -183.953125 C 154.675781 -183.953125 148.472656 -178.722656 141.921875 -168.265625 C 135.378906 -157.816406 127.648438 -138.097656 118.734375 -109.109375 C 109.816406 -80.128906 105.359375 -59.785156 105.359375 -48.078125 C 105.359375 -41.941406 106.332031 -37.828125 108.28125 -35.734375 C 110.226562 -33.648438 112.875 -32.609375 116.21875 -32.609375 C 122.070312 -32.046875 128.132812 -37.0625 134.40625 -47.65625 C 140.675781 -58.25 148.550781 -78.875 158.03125 -109.53125 C 166.664062 -136.5625 170.984375 -156.210938 170.984375 -168.484375 C 170.984375 -174.335938 170.078125 -178.378906 168.265625 -180.609375 C 166.453125 -182.835938 163.875 -183.953125 160.53125 -183.953125 Z M 160.53125 -183.953125 "/></g></g></g><g fill="#ffaa04" fill-opacity="0.502"><g transform="translate(3441.685494, 505.232662)"><g><path d="M 233.703125 -60.203125 C 233.140625 -57.972656 232.859375 -56.441406 232.859375 -55.609375 C 232.859375 -53.648438 233.414062 -52.113281 234.53125 -51 C 235.644531 -49.882812 237.039062 -49.328125 238.71875 -49.328125 C 242.0625 -49.328125 244.914062 -50.789062 247.28125 -53.71875 C 249.65625 -56.644531 251.257812 -58.109375 252.09375 -58.109375 C 253.488281 -58.109375 254.601562 -57.128906 255.4375 -55.171875 C 256.269531 -53.222656 256.6875 -51 256.6875 -48.5 C 256.96875 -40.96875 254.109375 -33.300781 248.109375 -25.5 C 242.117188 -17.695312 234.109375 -11.285156 224.078125 -6.265625 C 214.046875 -1.253906 203.175781 1.25 191.46875 1.25 C 177.53125 1.25 165.40625 -1.394531 155.09375 -6.6875 C 144.789062 -11.976562 137.6875 -18.945312 133.78125 -27.59375 C 126.257812 -17.832031 117.617188 -10.582031 107.859375 -5.84375 C 98.109375 -1.113281 87.796875 1.25 76.921875 1.25 C 64.097656 1.25 52.179688 -1.953125 41.171875 -8.359375 C 30.171875 -14.773438 21.394531 -23.90625 14.84375 -35.75 C 8.289062 -47.59375 5.015625 -61.039062 5.015625 -76.09375 C 5.015625 -101.445312 9.820312 -125.34375 19.4375 -147.78125 C 29.050781 -170.21875 42.5 -188.332031 59.78125 -202.125 C 77.0625 -215.925781 96.710938 -222.828125 118.734375 -222.828125 C 130.710938 -222.828125 140.953125 -221.429688 149.453125 -218.640625 C 157.953125 -215.859375 165.6875 -211.679688 172.65625 -206.109375 L 186.875 -252.921875 C 187.707031 -255.429688 188.125 -257.523438 188.125 -259.203125 C 188.125 -262.265625 187.359375 -264.769531 185.828125 -266.71875 C 184.296875 -268.675781 182.273438 -270.628906 179.765625 -272.578125 C 176.984375 -274.804688 174.960938 -276.753906 173.703125 -278.421875 C 172.453125 -280.097656 172.242188 -282.332031 173.078125 -285.125 C 174.753906 -291.53125 183.535156 -297.101562 199.421875 -301.84375 C 215.304688 -306.582031 231.890625 -308.953125 249.171875 -308.953125 C 265.328125 -308.953125 277.238281 -305.882812 284.90625 -299.75 C 292.570312 -293.613281 296.40625 -285.253906 296.40625 -274.671875 C 296.40625 -268.535156 295.429688 -262.539062 293.484375 -256.6875 Z M 163.875 -177.671875 C 159.414062 -181.578125 154.539062 -183.53125 149.25 -183.53125 C 141.164062 -183.53125 133.222656 -177.535156 125.421875 -165.546875 C 117.617188 -153.566406 111.347656 -139.078125 106.609375 -122.078125 C 101.867188 -105.078125 99.640625 -89.75 99.921875 -76.09375 C 99.921875 -60.757812 104.9375 -53.09375 114.96875 -53.09375 C 118.59375 -53.09375 121.65625 -54.554688 124.15625 -57.484375 C 126.664062 -60.410156 129.035156 -65.21875 131.265625 -71.90625 Z M 163.875 -177.671875 "/></g></g></g><g fill="#ff1616" fill-opacity="1"><g transform="translate(48.508604, 496.124996)"><g><path d="M 325.671875 -278.421875 C 337.097656 -278.421875 342.8125 -274.800781 342.8125 -267.5625 C 342.8125 -265.613281 342.671875 -264.21875 342.390625 -263.375 C 341.554688 -260.59375 340.300781 -258.429688 338.625 -256.890625 C 336.957031 -255.359375 334.59375 -253.617188 331.53125 -251.671875 C 327.34375 -249.160156 323.851562 -246.375 321.0625 -243.3125 C 318.28125 -240.25 315.914062 -235.507812 313.96875 -229.09375 L 262.125 -43.484375 C 257.382812 -26.753906 251.460938 -15.046875 244.359375 -8.359375 C 237.253906 -1.671875 227.429688 1.671875 214.890625 1.671875 C 203.734375 1.671875 194.460938 -1.601562 187.078125 -8.15625 C 179.691406 -14.707031 172.796875 -24.8125 166.390625 -38.46875 L 103.265625 -171.40625 L 68.140625 -49.328125 C 67.304688 -45.703125 66.890625 -42.5 66.890625 -39.71875 C 66.890625 -36.09375 67.515625 -33.09375 68.765625 -30.71875 C 70.023438 -28.351562 71.769531 -25.914062 74 -23.40625 C 77.0625 -19.789062 78.59375 -16.726562 78.59375 -14.21875 C 78.59375 -12.539062 78.453125 -11.285156 78.171875 -10.453125 C 77.054688 -6.546875 74.546875 -3.828125 70.640625 -2.296875 C 66.742188 -0.765625 60.894531 0 53.09375 0 L 7.53125 0 C -3.894531 0 -9.609375 -3.625 -9.609375 -10.875 C -9.609375 -12.820312 -9.472656 -14.210938 -9.203125 -15.046875 C -8.359375 -17.835938 -7.097656 -20 -5.421875 -21.53125 C -3.753906 -23.0625 -1.390625 -24.800781 1.671875 -26.75 C 5.847656 -29.257812 9.328125 -32.046875 12.109375 -35.109375 C 14.898438 -38.179688 17.273438 -42.921875 19.234375 -49.328125 L 72.328125 -237.046875 L 65.640625 -250.84375 C 62.847656 -256.414062 61.453125 -261.289062 61.453125 -265.46875 C 61.453125 -274.101562 67.023438 -278.421875 78.171875 -278.421875 L 140.046875 -278.421875 C 148.960938 -278.421875 155.71875 -276.398438 160.3125 -272.359375 C 164.914062 -268.328125 169.867188 -261.15625 175.171875 -250.84375 L 236.203125 -128.34375 L 265.046875 -229.09375 C 265.890625 -233 266.3125 -236.207031 266.3125 -238.71875 C 266.3125 -242.34375 265.679688 -245.335938 264.421875 -247.703125 C 263.171875 -250.066406 261.429688 -252.503906 259.203125 -255.015625 C 256.128906 -258.640625 254.59375 -261.707031 254.59375 -264.21875 C 254.59375 -265.882812 254.734375 -267.140625 255.015625 -267.984375 C 256.128906 -271.878906 258.632812 -274.59375 262.53125 -276.125 C 266.4375 -277.65625 272.296875 -278.421875 280.109375 -278.421875 Z M 325.671875 -278.421875 "/></g></g></g><g fill="#ff1616" fill-opacity="1"><g transform="translate(352.435882, 496.124996)"><g><path d="M 141.71875 -223.25 C 177.113281 -223.25 202.753906 -217.601562 218.640625 -206.3125 C 234.523438 -195.019531 242.46875 -180.597656 242.46875 -163.046875 C 242.46875 -157.742188 241.910156 -152.863281 240.796875 -148.40625 C 236.617188 -130.007812 224.984375 -116.835938 205.890625 -108.890625 C 186.804688 -100.953125 164.300781 -96.984375 138.375 -96.984375 C 125.28125 -96.984375 113.019531 -97.820312 101.59375 -99.5 C 101.3125 -85.007812 105.210938 -74.835938 113.296875 -68.984375 C 121.378906 -63.128906 132.664062 -60.203125 147.15625 -60.203125 C 153.84375 -60.203125 160.253906 -60.96875 166.390625 -62.5 C 172.523438 -64.03125 180.328125 -66.328125 189.796875 -69.390625 C 197.597656 -72.179688 202.894531 -73.578125 205.6875 -73.578125 C 208.75 -73.578125 210.28125 -71.765625 210.28125 -68.140625 C 210.5625 -58.390625 206.9375 -48.148438 199.40625 -37.421875 C 191.882812 -26.691406 180.738281 -17.5625 165.96875 -10.03125 C 151.195312 -2.507812 133.359375 1.25 112.453125 1.25 C 81.515625 1.25 56.148438 -6.550781 36.359375 -22.15625 C 16.578125 -37.757812 6.6875 -60.472656 6.6875 -90.296875 C 6.6875 -98.660156 7.800781 -108.414062 10.03125 -119.5625 C 17 -153.84375 32.257812 -179.691406 55.8125 -197.109375 C 79.363281 -214.535156 108 -223.25 141.71875 -223.25 Z M 104.515625 -124.578125 C 105.628906 -124.304688 107.160156 -124.171875 109.109375 -124.171875 C 120.816406 -124.171875 129.734375 -129.601562 135.859375 -140.46875 C 141.992188 -151.332031 144.925781 -163.457031 144.65625 -176.84375 C 144.375 -184.644531 142.140625 -188.546875 137.953125 -188.546875 C 134.890625 -188.546875 131.265625 -186.101562 127.078125 -181.21875 C 122.898438 -176.34375 118.789062 -169.03125 114.75 -159.28125 C 110.71875 -149.53125 107.304688 -137.960938 104.515625 -124.578125 Z M 104.515625 -124.578125 "/></g></g></g><g fill="#ff1616" fill-opacity="1"><g transform="translate(586.547613, 496.124996)"><g><path d="M 392.5625 -161.796875 C 392.5625 -136.984375 383.921875 -111.617188 366.640625 -85.703125 C 349.359375 -59.785156 327.546875 -38.394531 301.203125 -21.53125 C 274.867188 -4.664062 249.019531 3.765625 223.65625 3.765625 C 203.59375 3.765625 186.59375 0.28125 172.65625 -6.6875 C 158.71875 -13.65625 149.660156 -23.691406 145.484375 -36.796875 C 135.171875 -24.253906 123.742188 -14.773438 111.203125 -8.359375 C 98.660156 -1.953125 85.5625 1.25 71.90625 1.25 C 52.957031 1.25 37.554688 -3.414062 25.703125 -12.75 C 13.859375 -22.082031 7.9375 -35.8125 7.9375 -53.9375 C 7.9375 -63.40625 9.472656 -73.15625 12.546875 -83.1875 L 35.953125 -165.140625 C 36.515625 -167.367188 36.796875 -169.039062 36.796875 -170.15625 C 36.796875 -172.9375 36.097656 -175.300781 34.703125 -177.25 C 33.304688 -179.207031 31.351562 -181.300781 28.84375 -183.53125 C 24.664062 -187.15625 22.578125 -190.359375 22.578125 -193.140625 C 22.296875 -197.046875 24.660156 -201.226562 29.671875 -205.6875 C 34.691406 -210.144531 41.726562 -213.835938 50.78125 -216.765625 C 59.84375 -219.691406 70.085938 -221.15625 81.515625 -221.15625 C 100.191406 -221.15625 114.753906 -216.625 125.203125 -207.5625 C 135.660156 -198.507812 140.890625 -186.734375 140.890625 -172.234375 C 140.890625 -165.828125 139.773438 -158.863281 137.546875 -151.34375 L 116.21875 -80.265625 C 115.101562 -76.367188 114.546875 -73.722656 114.546875 -72.328125 C 114.546875 -68.703125 115.585938 -65.910156 117.671875 -63.953125 C 119.765625 -62.003906 122.625 -61.03125 126.25 -61.03125 C 131.269531 -61.03125 135.519531 -62.769531 139 -66.25 C 142.488281 -69.738281 145.90625 -75.382812 149.25 -83.1875 L 173.078125 -165.140625 C 173.628906 -167.367188 173.90625 -169.039062 173.90625 -170.15625 C 173.90625 -172.9375 173.207031 -175.300781 171.8125 -177.25 C 170.425781 -179.207031 168.476562 -181.300781 165.96875 -183.53125 C 161.789062 -187.15625 159.703125 -190.359375 159.703125 -193.140625 C 159.421875 -197.046875 161.785156 -201.226562 166.796875 -205.6875 C 171.816406 -210.144531 178.851562 -213.835938 187.90625 -216.765625 C 196.96875 -219.691406 207.210938 -221.15625 218.640625 -221.15625 C 237.597656 -221.15625 252.234375 -216.695312 262.546875 -207.78125 C 272.859375 -198.863281 278.015625 -187.015625 278.015625 -172.234375 C 278.015625 -166.390625 276.898438 -159.425781 274.671875 -151.34375 L 247.5 -61.875 C 246.9375 -60.476562 246.65625 -58.390625 246.65625 -55.609375 C 246.65625 -51.984375 247.910156 -49.191406 250.421875 -47.234375 C 252.929688 -45.285156 256.414062 -44.3125 260.875 -44.3125 C 267 -44.3125 274.171875 -47.03125 282.390625 -52.46875 C 290.617188 -57.90625 298.703125 -65.707031 306.640625 -75.875 C 314.585938 -86.050781 321.070312 -98.109375 326.09375 -112.046875 C 314.9375 -121.796875 307.054688 -131.40625 302.453125 -140.875 C 297.859375 -150.351562 295.5625 -160.113281 295.5625 -170.15625 C 295.5625 -184.363281 299.460938 -196.414062 307.265625 -206.3125 C 315.078125 -216.207031 326.367188 -221.15625 341.140625 -221.15625 C 355.910156 -221.15625 368.171875 -215.859375 377.921875 -205.265625 C 387.679688 -194.671875 392.5625 -180.179688 392.5625 -161.796875 Z M 392.5625 -161.796875 "/></g></g></g><g fill="#ff1616" fill-opacity="1"><g transform="translate(974.086199, 496.124996)"><g/></g></g><g fill="#ff1616" fill-opacity="1"><g transform="translate(1057.697462, 496.124996)"><g><path d="M 145.484375 2.515625 C 122.078125 2.515625 101.035156 -1.800781 82.359375 -10.4375 C 63.679688 -19.082031 48.835938 -31.835938 37.828125 -48.703125 C 26.828125 -65.566406 21.328125 -85.984375 21.328125 -109.953125 C 21.328125 -126.671875 24.25 -144.785156 30.09375 -164.296875 C 42.914062 -206.109375 62.285156 -236.28125 88.203125 -254.8125 C 114.128906 -273.34375 141.863281 -282.609375 171.40625 -282.609375 C 187.289062 -282.609375 201.363281 -280.238281 213.625 -275.5 C 225.894531 -270.757812 237.1875 -263.929688 247.5 -255.015625 L 258.78125 -263.796875 C 266.300781 -269.648438 272.640625 -273.691406 277.796875 -275.921875 C 282.953125 -278.148438 288.738281 -279.265625 295.15625 -279.265625 C 302.125 -279.265625 307.695312 -277.726562 311.875 -274.65625 C 316.050781 -271.59375 318.140625 -267.132812 318.140625 -261.28125 C 318.140625 -258.21875 317.582031 -255.15625 316.46875 -252.09375 L 293.0625 -186.875 C 290.550781 -179.351562 287.550781 -174.054688 284.0625 -170.984375 C 280.582031 -167.921875 275.359375 -166.390625 268.390625 -166.390625 C 261.148438 -166.390625 255.226562 -168.96875 250.625 -174.125 C 246.03125 -179.28125 240.804688 -188.128906 234.953125 -200.671875 C 228.265625 -213.765625 222.828125 -222.398438 218.640625 -226.578125 C 214.460938 -230.765625 208.332031 -232.859375 200.25 -232.859375 C 188.820312 -232.859375 177.8125 -225.820312 167.21875 -211.75 C 156.632812 -197.675781 147.019531 -176.5625 138.375 -148.40625 C 131.132812 -124.71875 127.515625 -104.929688 127.515625 -89.046875 C 127.515625 -75.109375 130.160156 -64.722656 135.453125 -57.890625 C 140.742188 -51.066406 147.847656 -47.65625 156.765625 -47.65625 C 169.867188 -47.65625 180.671875 -50.582031 189.171875 -56.4375 C 197.671875 -62.289062 206.378906 -70.234375 215.296875 -80.265625 C 220.867188 -86.398438 225.394531 -90.929688 228.875 -93.859375 C 232.363281 -96.785156 236.0625 -98.25 239.96875 -98.25 C 244.988281 -98.25 250.285156 -95.738281 255.859375 -90.71875 C 261.429688 -85.695312 264.078125 -80.679688 263.796875 -75.671875 C 264.078125 -69.535156 259.128906 -60.054688 248.953125 -47.234375 C 238.785156 -34.421875 224.710938 -22.925781 206.734375 -12.75 C 188.753906 -2.570312 168.335938 2.515625 145.484375 2.515625 Z M 145.484375 2.515625 "/></g></g></g><g fill="#ff1616" fill-opacity="1"><g transform="translate(1346.992735, 496.124996)"><g><path d="M 256.265625 -57.6875 C 255.710938 -56.570312 255.4375 -54.898438 255.4375 -52.671875 C 255.4375 -50.722656 255.921875 -49.191406 256.890625 -48.078125 C 257.867188 -46.960938 259.195312 -46.40625 260.875 -46.40625 C 264.21875 -46.40625 267.070312 -47.867188 269.4375 -50.796875 C 271.8125 -53.722656 273.414062 -55.1875 274.25 -55.1875 C 275.644531 -55.1875 276.757812 -54.28125 277.59375 -52.46875 C 278.425781 -50.65625 278.84375 -48.492188 278.84375 -45.984375 C 279.125 -37.898438 276.476562 -30.023438 270.90625 -22.359375 C 265.332031 -14.703125 257.179688 -8.429688 246.453125 -3.546875 C 235.722656 1.328125 222.832031 3.765625 207.78125 3.765625 C 189.382812 3.765625 174.75 -0.484375 163.875 -8.984375 C 153.007812 -17.484375 147.4375 -28.84375 147.15625 -43.0625 C 147.15625 -53.375 149.664062 -64.941406 154.6875 -77.765625 L 177.671875 -137.953125 C 179.066406 -141.578125 179.765625 -144.503906 179.765625 -146.734375 C 179.765625 -150.359375 178.578125 -153.21875 176.203125 -155.3125 C 173.835938 -157.40625 170.984375 -158.453125 167.640625 -158.453125 C 162.347656 -158.453125 156.984375 -156.007812 151.546875 -151.125 C 146.109375 -146.25 141.71875 -138.378906 138.375 -127.515625 L 138.375 -128.34375 L 112.046875 -43.484375 C 111.203125 -40.140625 110.78125 -37.210938 110.78125 -34.703125 C 110.78125 -31.078125 111.476562 -28.21875 112.875 -26.125 C 114.269531 -24.039062 116.222656 -22.019531 118.734375 -20.0625 C 120.679688 -18.113281 122.070312 -16.507812 122.90625 -15.25 C 123.75 -14 123.890625 -12.398438 123.328125 -10.453125 C 121.929688 -6.828125 119.144531 -4.175781 114.96875 -2.5 C 110.789062 -0.832031 104.378906 0 95.734375 0 L 0.421875 0 C -6.828125 0 -12.125 -1.179688 -15.46875 -3.546875 C -18.8125 -5.921875 -19.925781 -9.054688 -18.8125 -12.953125 C -17.695312 -16.304688 -14.769531 -19.234375 -10.03125 -21.734375 C -5.851562 -23.960938 -2.375 -26.609375 0.40625 -29.671875 C 3.195312 -32.742188 5.570312 -37.625 7.53125 -44.3125 L 71.078125 -252.921875 C 71.910156 -255.429688 72.328125 -257.523438 72.328125 -259.203125 C 72.328125 -262.265625 71.554688 -264.769531 70.015625 -266.71875 C 68.484375 -268.675781 66.46875 -270.628906 63.96875 -272.578125 C 61.175781 -274.804688 59.148438 -276.753906 57.890625 -278.421875 C 56.640625 -280.097656 56.4375 -282.332031 57.28125 -285.125 C 58.945312 -291.53125 67.722656 -297.101562 83.609375 -301.84375 C 99.492188 -306.582031 116.078125 -308.953125 133.359375 -308.953125 C 149.523438 -308.953125 161.441406 -305.882812 169.109375 -299.75 C 176.773438 -293.613281 180.609375 -285.253906 180.609375 -274.671875 C 180.609375 -268.535156 179.628906 -262.539062 177.671875 -256.6875 L 155.09375 -183.109375 C 165.96875 -197.328125 177.46875 -207.222656 189.59375 -212.796875 C 201.71875 -218.367188 214.882812 -221.15625 229.09375 -221.15625 C 246.09375 -221.15625 259.816406 -216 270.265625 -205.6875 C 280.722656 -195.375 285.953125 -181.992188 285.953125 -165.546875 C 285.953125 -156.910156 284.5625 -148.410156 281.78125 -140.046875 Z M 256.265625 -57.6875 "/></g></g></g><g fill="#ff1616" fill-opacity="1"><g transform="translate(1643.813096, 496.124996)"><g><path d="M 161.796875 -221.15625 C 199.691406 -221.15625 227.628906 -213.488281 245.609375 -198.15625 C 263.585938 -182.832031 272.578125 -162.765625 272.578125 -137.953125 C 272.578125 -129.597656 271.460938 -120.265625 269.234375 -109.953125 C 263.929688 -87.097656 254.035156 -67.097656 239.546875 -49.953125 C 225.054688 -32.816406 207.289062 -19.578125 186.25 -10.234375 C 165.207031 -0.898438 142.421875 3.765625 117.890625 3.765625 C 79.148438 3.765625 50.515625 -3.96875 31.984375 -19.4375 C 13.453125 -34.90625 4.1875 -55.460938 4.1875 -81.109375 C 4.1875 -89.742188 5.300781 -99.359375 7.53125 -109.953125 C 12.820312 -131.691406 22.921875 -150.988281 37.828125 -167.84375 C 52.742188 -184.707031 71 -197.804688 92.59375 -207.140625 C 114.195312 -216.484375 137.265625 -221.15625 161.796875 -221.15625 Z M 160.53125 -183.953125 C 154.675781 -183.953125 148.472656 -178.722656 141.921875 -168.265625 C 135.378906 -157.816406 127.648438 -138.097656 118.734375 -109.109375 C 109.816406 -80.128906 105.359375 -59.785156 105.359375 -48.078125 C 105.359375 -41.941406 106.332031 -37.828125 108.28125 -35.734375 C 110.226562 -33.648438 112.875 -32.609375 116.21875 -32.609375 C 122.070312 -32.046875 128.132812 -37.0625 134.40625 -47.65625 C 140.675781 -58.25 148.550781 -78.875 158.03125 -109.53125 C 166.664062 -136.5625 170.984375 -156.210938 170.984375 -168.484375 C 170.984375 -174.335938 170.078125 -178.378906 168.265625 -180.609375 C 166.453125 -182.835938 163.875 -183.953125 160.53125 -183.953125 Z M 160.53125 -183.953125 "/></g></g></g><g fill="#ff1616" fill-opacity="1"><g transform="translate(1918.058383, 496.124996)"><g><path d="M 109.953125 -221.15625 C 126.109375 -221.15625 137.945312 -218.085938 145.46875 -211.953125 C 153 -205.828125 156.765625 -197.46875 156.765625 -186.875 C 156.765625 -180.46875 155.789062 -174.335938 153.84375 -168.484375 L 115.375 -43.484375 C 114.539062 -40.140625 114.125 -37.210938 114.125 -34.703125 C 114.125 -31.078125 114.820312 -28.21875 116.21875 -26.125 C 117.613281 -24.039062 119.5625 -22.019531 122.0625 -20.0625 C 124.019531 -18.113281 125.414062 -16.507812 126.25 -15.25 C 127.082031 -14 127.222656 -12.398438 126.671875 -10.453125 C 125.273438 -6.828125 122.484375 -4.175781 118.296875 -2.5 C 114.117188 -0.832031 107.710938 0 99.078125 0 L 3.765625 0 C -3.484375 0 -8.78125 -1.179688 -12.125 -3.546875 C -15.46875 -5.921875 -16.582031 -9.054688 -15.46875 -12.953125 C -14.351562 -16.304688 -11.425781 -19.234375 -6.6875 -21.734375 C -2.507812 -23.960938 0.96875 -26.609375 3.75 -29.671875 C 6.539062 -32.742188 8.910156 -37.625 10.859375 -44.3125 L 47.234375 -165.140625 C 48.066406 -167.640625 48.484375 -169.726562 48.484375 -171.40625 C 48.484375 -174.46875 47.785156 -176.90625 46.390625 -178.71875 C 45.003906 -180.53125 42.914062 -182.410156 40.125 -184.359375 C 37.34375 -186.585938 35.394531 -188.539062 34.28125 -190.21875 C 33.164062 -191.894531 33.023438 -194.125 33.859375 -196.90625 C 35.535156 -203.3125 44.316406 -208.953125 60.203125 -213.828125 C 76.085938 -218.710938 92.671875 -221.15625 109.953125 -221.15625 Z M 137.953125 -313.546875 C 148.828125 -313.546875 157.882812 -309.988281 165.125 -302.875 C 172.375 -295.769531 176 -287.0625 176 -276.75 C 176 -269.507812 174.113281 -262.40625 170.34375 -255.4375 C 166.582031 -248.46875 161.285156 -242.820312 154.453125 -238.5 C 147.628906 -234.1875 140.039062 -232.03125 131.6875 -232.03125 C 121.09375 -232.03125 112.238281 -235.582031 105.125 -242.6875 C 98.019531 -249.789062 94.332031 -258.640625 94.0625 -269.234375 C 94.0625 -276.203125 95.867188 -283.097656 99.484375 -289.921875 C 103.109375 -296.753906 108.265625 -302.398438 114.953125 -306.859375 C 121.648438 -311.316406 129.316406 -313.546875 137.953125 -313.546875 Z M 137.953125 -313.546875 "/></g></g></g><g fill="#ff1616" fill-opacity="1"><g transform="translate(2071.067165, 496.124996)"><g><path d="M 151.75 -223.25 C 168.757812 -223.25 183.671875 -220.804688 196.484375 -215.921875 C 209.304688 -211.046875 219.269531 -204.359375 226.375 -195.859375 C 233.488281 -187.359375 237.046875 -177.953125 237.046875 -167.640625 C 237.046875 -156.492188 233.210938 -147.296875 225.546875 -140.046875 C 217.878906 -132.804688 207.5 -129.1875 194.40625 -129.1875 C 181.019531 -129.1875 170.5625 -132.597656 163.03125 -139.421875 C 155.507812 -146.253906 151.75 -155.519531 151.75 -167.21875 C 151.75 -172.800781 152.585938 -178.65625 154.265625 -184.78125 C 142.554688 -181.71875 132.171875 -175.65625 123.109375 -166.59375 C 114.054688 -157.539062 108 -145.628906 104.9375 -130.859375 C 103.257812 -122.492188 102.421875 -114.96875 102.421875 -108.28125 C 102.421875 -93.226562 106.601562 -81.800781 114.96875 -74 C 123.332031 -66.195312 135.316406 -62.296875 150.921875 -62.296875 C 159.835938 -62.296875 167.5 -63.195312 173.90625 -65 C 180.320312 -66.8125 186.875 -69.253906 193.5625 -72.328125 C 199.132812 -75.109375 203.175781 -76.5 205.6875 -76.5 C 207.351562 -76.5 208.46875 -76.148438 209.03125 -75.453125 C 209.59375 -74.765625 209.875 -73.304688 209.875 -71.078125 C 210.144531 -60.765625 205.890625 -49.960938 197.109375 -38.671875 C 188.335938 -27.378906 176.21875 -17.898438 160.75 -10.234375 C 145.28125 -2.578125 127.929688 1.25 108.703125 1.25 C 88.628906 1.25 70.859375 -2.441406 55.390625 -9.828125 C 39.921875 -17.210938 27.9375 -27.800781 19.4375 -41.59375 C 10.9375 -55.394531 6.6875 -71.492188 6.6875 -89.890625 C 6.6875 -98.523438 7.800781 -108.140625 10.03125 -118.734375 C 17.5625 -153.285156 34.210938 -179.34375 59.984375 -196.90625 C 85.765625 -214.46875 116.351562 -223.25 151.75 -223.25 Z M 151.75 -223.25 "/></g></g></g><g fill="#ff1616" fill-opacity="1"><g transform="translate(2297.653944, 496.124996)"><g><path d="M 141.71875 -223.25 C 177.113281 -223.25 202.753906 -217.601562 218.640625 -206.3125 C 234.523438 -195.019531 242.46875 -180.597656 242.46875 -163.046875 C 242.46875 -157.742188 241.910156 -152.863281 240.796875 -148.40625 C 236.617188 -130.007812 224.984375 -116.835938 205.890625 -108.890625 C 186.804688 -100.953125 164.300781 -96.984375 138.375 -96.984375 C 125.28125 -96.984375 113.019531 -97.820312 101.59375 -99.5 C 101.3125 -85.007812 105.210938 -74.835938 113.296875 -68.984375 C 121.378906 -63.128906 132.664062 -60.203125 147.15625 -60.203125 C 153.84375 -60.203125 160.253906 -60.96875 166.390625 -62.5 C 172.523438 -64.03125 180.328125 -66.328125 189.796875 -69.390625 C 197.597656 -72.179688 202.894531 -73.578125 205.6875 -73.578125 C 208.75 -73.578125 210.28125 -71.765625 210.28125 -68.140625 C 210.5625 -58.390625 206.9375 -48.148438 199.40625 -37.421875 C 191.882812 -26.691406 180.738281 -17.5625 165.96875 -10.03125 C 151.195312 -2.507812 133.359375 1.25 112.453125 1.25 C 81.515625 1.25 56.148438 -6.550781 36.359375 -22.15625 C 16.578125 -37.757812 6.6875 -60.472656 6.6875 -90.296875 C 6.6875 -98.660156 7.800781 -108.414062 10.03125 -119.5625 C 17 -153.84375 32.257812 -179.691406 55.8125 -197.109375 C 79.363281 -214.535156 108 -223.25 141.71875 -223.25 Z M 104.515625 -124.578125 C 105.628906 -124.304688 107.160156 -124.171875 109.109375 -124.171875 C 120.816406 -124.171875 129.734375 -129.601562 135.859375 -140.46875 C 141.992188 -151.332031 144.925781 -163.457031 144.65625 -176.84375 C 144.375 -184.644531 142.140625 -188.546875 137.953125 -188.546875 C 134.890625 -188.546875 131.265625 -186.101562 127.078125 -181.21875 C 122.898438 -176.34375 118.789062 -169.03125 114.75 -159.28125 C 110.71875 -149.53125 107.304688 -137.960938 104.515625 -124.578125 Z M 104.515625 -124.578125 "/></g></g></g><g fill="#ff1616" fill-opacity="1"><g transform="translate(2531.765631, 496.124996)"><g/></g></g><g fill="#ff1616" fill-opacity="1"><g transform="translate(2615.376893, 496.124996)"><g><path d="M 272.578125 -278.421875 C 282.890625 -278.421875 290.898438 -276.191406 296.609375 -271.734375 C 302.328125 -267.273438 305.1875 -261.144531 305.1875 -253.34375 C 305.1875 -249.445312 304.628906 -245.6875 303.515625 -242.0625 L 292.640625 -203.171875 C 290.691406 -195.929688 287.488281 -190.773438 283.03125 -187.703125 C 278.570312 -184.640625 272.71875 -183.109375 265.46875 -183.109375 C 258.5 -183.109375 252.921875 -184.570312 248.734375 -187.5 C 244.554688 -190.425781 241.492188 -195.234375 239.546875 -201.921875 L 232.859375 -225.75 C 231.742188 -229.9375 230.347656 -232.722656 228.671875 -234.109375 C 227.003906 -235.503906 223.523438 -236.203125 218.234375 -236.203125 L 176.421875 -236.203125 L 153.015625 -153.421875 L 160.953125 -153.421875 C 164.859375 -153.421875 168.273438 -153.976562 171.203125 -155.09375 C 174.128906 -156.207031 177.265625 -158.300781 180.609375 -161.375 L 193.5625 -172.234375 C 198.300781 -176.421875 202.550781 -179.421875 206.3125 -181.234375 C 210.070312 -183.046875 214.046875 -183.953125 218.234375 -183.953125 C 223.523438 -183.953125 227.910156 -182.414062 231.390625 -179.34375 C 234.878906 -176.28125 236.625 -171.960938 236.625 -166.390625 C 236.625 -164.160156 236.207031 -161.515625 235.375 -158.453125 L 216.96875 -94.90625 C 212.789062 -81.25 205.269531 -74.421875 194.40625 -74.421875 C 185.476562 -74.421875 178.507812 -79.019531 173.5 -88.21875 L 165.96875 -102.421875 C 164.019531 -106.328125 162.207031 -108.835938 160.53125 -109.953125 C 158.863281 -111.066406 156.359375 -111.625 153.015625 -111.625 L 140.890625 -111.625 L 123.328125 -49.328125 C 122.773438 -47.660156 122.5 -45.429688 122.5 -42.640625 C 122.5 -38.742188 123.398438 -35.539062 125.203125 -33.03125 C 127.015625 -30.519531 129.734375 -27.867188 133.359375 -25.078125 C 136.421875 -22.578125 138.507812 -20.554688 139.625 -19.015625 C 140.75 -17.484375 141.3125 -15.601562 141.3125 -13.375 C 141.3125 -8.363281 139.078125 -4.878906 134.609375 -2.921875 C 130.148438 -0.972656 123.601562 0 114.96875 0 L 10.03125 0 C 2.78125 0 -2.648438 -1.320312 -6.265625 -3.96875 C -9.890625 -6.613281 -11.144531 -10.304688 -10.03125 -15.046875 C -9.476562 -17.554688 -8.429688 -19.578125 -6.890625 -21.109375 C -5.359375 -22.640625 -3.0625 -24.382812 0 -26.34375 C 4.738281 -29.125 8.5 -32.046875 11.28125 -35.109375 C 14.070312 -38.179688 16.304688 -42.921875 17.984375 -49.328125 L 69.390625 -229.515625 C 70.515625 -233.140625 71.078125 -236.484375 71.078125 -239.546875 C 71.078125 -242.890625 70.585938 -245.675781 69.609375 -247.90625 C 68.628906 -250.132812 67.164062 -252.503906 65.21875 -255.015625 C 62.707031 -258.640625 61.453125 -261.566406 61.453125 -263.796875 C 61.453125 -264.628906 61.734375 -266.160156 62.296875 -268.390625 C 63.410156 -272.015625 65.914062 -274.59375 69.8125 -276.125 C 73.71875 -277.65625 79.429688 -278.421875 86.953125 -278.421875 Z M 272.578125 -278.421875 "/></g></g></g><g fill="#ff1616" fill-opacity="1"><g transform="translate(2879.170706, 496.124996)"><g><path d="M 161.796875 -221.15625 C 199.691406 -221.15625 227.628906 -213.488281 245.609375 -198.15625 C 263.585938 -182.832031 272.578125 -162.765625 272.578125 -137.953125 C 272.578125 -129.597656 271.460938 -120.265625 269.234375 -109.953125 C 263.929688 -87.097656 254.035156 -67.097656 239.546875 -49.953125 C 225.054688 -32.816406 207.289062 -19.578125 186.25 -10.234375 C 165.207031 -0.898438 142.421875 3.765625 117.890625 3.765625 C 79.148438 3.765625 50.515625 -3.96875 31.984375 -19.4375 C 13.453125 -34.90625 4.1875 -55.460938 4.1875 -81.109375 C 4.1875 -89.742188 5.300781 -99.359375 7.53125 -109.953125 C 12.820312 -131.691406 22.921875 -150.988281 37.828125 -167.84375 C 52.742188 -184.707031 71 -197.804688 92.59375 -207.140625 C 114.195312 -216.484375 137.265625 -221.15625 161.796875 -221.15625 Z M 160.53125 -183.953125 C 154.675781 -183.953125 148.472656 -178.722656 141.921875 -168.265625 C 135.378906 -157.816406 127.648438 -138.097656 118.734375 -109.109375 C 109.816406 -80.128906 105.359375 -59.785156 105.359375 -48.078125 C 105.359375 -41.941406 106.332031 -37.828125 108.28125 -35.734375 C 110.226562 -33.648438 112.875 -32.609375 116.21875 -32.609375 C 122.070312 -32.046875 128.132812 -37.0625 134.40625 -47.65625 C 140.675781 -58.25 148.550781 -78.875 158.03125 -109.53125 C 166.664062 -136.5625 170.984375 -156.210938 170.984375 -168.484375 C 170.984375 -174.335938 170.078125 -178.378906 168.265625 -180.609375 C 166.453125 -182.835938 163.875 -183.953125 160.53125 -183.953125 Z M 160.53125 -183.953125 "/></g></g></g><g fill="#ff1616" fill-opacity="1"><g transform="translate(3153.415812, 496.124996)"><g><path d="M 161.796875 -221.15625 C 199.691406 -221.15625 227.628906 -213.488281 245.609375 -198.15625 C 263.585938 -182.832031 272.578125 -162.765625 272.578125 -137.953125 C 272.578125 -129.597656 271.460938 -120.265625 269.234375 -109.953125 C 263.929688 -87.097656 254.035156 -67.097656 239.546875 -49.953125 C 225.054688 -32.816406 207.289062 -19.578125 186.25 -10.234375 C 165.207031 -0.898438 142.421875 3.765625 117.890625 3.765625 C 79.148438 3.765625 50.515625 -3.96875 31.984375 -19.4375 C 13.453125 -34.90625 4.1875 -55.460938 4.1875 -81.109375 C 4.1875 -89.742188 5.300781 -99.359375 7.53125 -109.953125 C 12.820312 -131.691406 22.921875 -150.988281 37.828125 -167.84375 C 52.742188 -184.707031 71 -197.804688 92.59375 -207.140625 C 114.195312 -216.484375 137.265625 -221.15625 161.796875 -221.15625 Z M 160.53125 -183.953125 C 154.675781 -183.953125 148.472656 -178.722656 141.921875 -168.265625 C 135.378906 -157.816406 127.648438 -138.097656 118.734375 -109.109375 C 109.816406 -80.128906 105.359375 -59.785156 105.359375 -48.078125 C 105.359375 -41.941406 106.332031 -37.828125 108.28125 -35.734375 C 110.226562 -33.648438 112.875 -32.609375 116.21875 -32.609375 C 122.070312 -32.046875 128.132812 -37.0625 134.40625 -47.65625 C 140.675781 -58.25 148.550781 -78.875 158.03125 -109.53125 C 166.664062 -136.5625 170.984375 -156.210938 170.984375 -168.484375 C 170.984375 -174.335938 170.078125 -178.378906 168.265625 -180.609375 C 166.453125 -182.835938 163.875 -183.953125 160.53125 -183.953125 Z M 160.53125 -183.953125 "/></g></g></g><g fill="#ff1616" fill-opacity="1"><g transform="translate(3427.660919, 496.124996)"><g><path d="M 233.703125 -60.203125 C 233.140625 -57.972656 232.859375 -56.441406 232.859375 -55.609375 C 232.859375 -53.648438 233.414062 -52.113281 234.53125 -51 C 235.644531 -49.882812 237.039062 -49.328125 238.71875 -49.328125 C 242.0625 -49.328125 244.914062 -50.789062 247.28125 -53.71875 C 249.65625 -56.644531 251.257812 -58.109375 252.09375 -58.109375 C 253.488281 -58.109375 254.601562 -57.128906 255.4375 -55.171875 C 256.269531 -53.222656 256.6875 -51 256.6875 -48.5 C 256.96875 -40.96875 254.109375 -33.300781 248.109375 -25.5 C 242.117188 -17.695312 234.109375 -11.285156 224.078125 -6.265625 C 214.046875 -1.253906 203.175781 1.25 191.46875 1.25 C 177.53125 1.25 165.40625 -1.394531 155.09375 -6.6875 C 144.789062 -11.976562 137.6875 -18.945312 133.78125 -27.59375 C 126.257812 -17.832031 117.617188 -10.582031 107.859375 -5.84375 C 98.109375 -1.113281 87.796875 1.25 76.921875 1.25 C 64.097656 1.25 52.179688 -1.953125 41.171875 -8.359375 C 30.171875 -14.773438 21.394531 -23.90625 14.84375 -35.75 C 8.289062 -47.59375 5.015625 -61.039062 5.015625 -76.09375 C 5.015625 -101.445312 9.820312 -125.34375 19.4375 -147.78125 C 29.050781 -170.21875 42.5 -188.332031 59.78125 -202.125 C 77.0625 -215.925781 96.710938 -222.828125 118.734375 -222.828125 C 130.710938 -222.828125 140.953125 -221.429688 149.453125 -218.640625 C 157.953125 -215.859375 165.6875 -211.679688 172.65625 -206.109375 L 186.875 -252.921875 C 187.707031 -255.429688 188.125 -257.523438 188.125 -259.203125 C 188.125 -262.265625 187.359375 -264.769531 185.828125 -266.71875 C 184.296875 -268.675781 182.273438 -270.628906 179.765625 -272.578125 C 176.984375 -274.804688 174.960938 -276.753906 173.703125 -278.421875 C 172.453125 -280.097656 172.242188 -282.332031 173.078125 -285.125 C 174.753906 -291.53125 183.535156 -297.101562 199.421875 -301.84375 C 215.304688 -306.582031 231.890625 -308.953125 249.171875 -308.953125 C 265.328125 -308.953125 277.238281 -305.882812 284.90625 -299.75 C 292.570312 -293.613281 296.40625 -285.253906 296.40625 -274.671875 C 296.40625 -268.535156 295.429688 -262.539062 293.484375 -256.6875 Z M 163.875 -177.671875 C 159.414062 -181.578125 154.539062 -183.53125 149.25 -183.53125 C 141.164062 -183.53125 133.222656 -177.535156 125.421875 -165.546875 C 117.617188 -153.566406 111.347656 -139.078125 106.609375 -122.078125 C 101.867188 -105.078125 99.640625 -89.75 99.921875 -76.09375 C 99.921875 -60.757812 104.9375 -53.09375 114.96875 -53.09375 C 118.59375 -53.09375 121.65625 -54.554688 124.15625 -57.484375 C 126.664062 -60.410156 129.035156 -65.21875 131.265625 -71.90625 Z M 163.875 -177.671875 "/></g></g></g></svg>